<svg aria-hidden="true" style="position: absolute; width: 0; height: 0; overflow: hidden;" version="1.1" xmlns="http://www.w3.org/2000/svg" xmlns:xlink="http://www.w3.org/1999/xlink">
<defs>
    <symbol id="icon-arrow" viewBox="0 0 33 32">
        <path fill="#ed017f" style="fill: var(--color1, #ed017f)" d="M24.721 15.493c-0.063-0.164-0.159-0.313-0.28-0.44l-6.667-6.667c-0.124-0.124-0.272-0.223-0.434-0.29s-0.337-0.102-0.512-0.102c-0.355 0-0.696 0.141-0.947 0.392-0.124 0.124-0.223 0.272-0.29 0.434s-0.102 0.337-0.102 0.512c0 0.355 0.141 0.696 0.392 0.947l4.4 4.387h-10.12c-0.354 0-0.693 0.14-0.943 0.39s-0.391 0.589-0.391 0.943c0 0.354 0.14 0.693 0.391 0.943s0.589 0.391 0.943 0.391h10.12l-4.4 4.387c-0.125 0.124-0.224 0.271-0.292 0.434s-0.102 0.337-0.102 0.513 0.035 0.35 0.102 0.513c0.068 0.162 0.167 0.31 0.292 0.434 0.124 0.125 0.271 0.224 0.434 0.292s0.337 0.102 0.513 0.102 0.35-0.035 0.513-0.102c0.162-0.068 0.31-0.167 0.434-0.292l6.667-6.667c0.121-0.127 0.216-0.276 0.28-0.44 0.133-0.325 0.133-0.689 0-1.013z"></path>
    </symbol>
<symbol id="icon-car" viewBox="0 0 32 32">
<path fill="#ed017f" style="fill: var(--color1, #ed017f)" d="M25.047 12.704h-0.422l-1.648-4.113c-0.294-0.731-0.8-1.358-1.453-1.8s-1.423-0.678-2.211-0.679h-7.91c-0.916-0.003-1.804 0.313-2.513 0.892s-1.195 1.387-1.375 2.285l-0.686 3.414h-0.237c-1.049 0-2.055 0.417-2.796 1.158s-1.158 1.748-1.158 2.796v3.955c0 0.35 0.139 0.685 0.386 0.932s0.583 0.386 0.932 0.386h1.318c0 1.049 0.417 2.055 1.158 2.796s1.748 1.158 2.797 1.158c1.049 0 2.055-0.417 2.796-1.158s1.158-1.748 1.158-2.797h5.273c0 1.049 0.417 2.055 1.158 2.797s1.748 1.158 2.797 1.158c1.049 0 2.055-0.417 2.797-1.158s1.158-1.748 1.158-2.797h1.318c0.35 0 0.685-0.139 0.932-0.386s0.386-0.582 0.386-0.932v-3.955c0-1.049-0.417-2.055-1.158-2.796s-1.748-1.158-2.797-1.158zM17.138 8.749h2.175c0.262 0.002 0.517 0.083 0.733 0.231s0.383 0.357 0.48 0.6l1.252 3.124h-4.64v-3.955zM10.098 9.804c0.062-0.302 0.227-0.573 0.468-0.766s0.542-0.295 0.85-0.289h3.085v3.955h-4.983l0.58-2.9zM9.228 23.25c-0.261 0-0.516-0.077-0.732-0.222s-0.386-0.351-0.486-0.592c-0.1-0.241-0.126-0.506-0.075-0.762s0.176-0.491 0.361-0.675c0.184-0.184 0.419-0.31 0.675-0.361s0.521-0.025 0.762 0.075c0.241 0.1 0.447 0.269 0.592 0.485s0.222 0.472 0.222 0.733c0 0.35-0.139 0.685-0.386 0.932s-0.583 0.386-0.932 0.386zM22.411 23.25c-0.261 0-0.515-0.077-0.732-0.222s-0.386-0.351-0.485-0.592c-0.1-0.241-0.126-0.506-0.075-0.762s0.176-0.491 0.361-0.675c0.184-0.184 0.419-0.31 0.675-0.361s0.521-0.025 0.762 0.075c0.241 0.1 0.447 0.269 0.592 0.485s0.222 0.472 0.222 0.733c0 0.35-0.139 0.685-0.386 0.932s-0.582 0.386-0.932 0.386zM26.366 19.296h-1.028c-0.371-0.408-0.823-0.734-1.326-0.957s-1.049-0.338-1.6-0.338c-0.551 0-1.096 0.115-1.6 0.338s-0.956 0.549-1.326 0.957h-7.33c-0.371-0.408-0.822-0.734-1.326-0.957s-1.049-0.338-1.6-0.338-1.096 0.115-1.6 0.338c-0.504 0.223-0.956 0.549-1.326 0.957h-1.028v-2.637c0-0.35 0.139-0.685 0.386-0.932s0.583-0.386 0.932-0.386h18.456c0.35 0 0.685 0.139 0.932 0.386s0.386 0.582 0.386 0.932v2.637z"></path>
</symbol>
<symbol id="icon-corporate" viewBox="0 0 32 32">
<path fill="#f899cc" style="fill: var(--color2, #f899cc)" d="M24.947 8.211h-18.175c-2.151 0-3.895 1.744-3.895 3.895v3.532l8.877 2.959h8.212l8.877-2.959v-3.532c0-2.151-1.744-3.895-3.895-3.895z"></path>
<path fill="#ed017f" style="fill: var(--color1, #ed017f)" d="M13.263 8.211v-1.298h5.193v1.298h2.597v-1.298c-0.002-1.433-1.163-2.595-2.597-2.596h-5.193c-1.433 0.002-2.595 1.163-2.597 2.596v1.298h2.597zM11.754 18.596l-8.877-2.959v8.152c0.002 2.15 1.745 3.892 3.895 3.895h18.175c2.15-0.002 3.892-1.745 3.895-3.895v-8.152l-8.877 2.959h-8.212z"></path>
</symbol>
<symbol id="icon-demonstrate" viewBox="0 0 32 32">
<path fill="#fce0ef" style="fill: var(--color3, #fce0ef)" d="M18.088 12.105c-1.075 0-1.947-0.872-1.947-1.947s0.872-1.947 1.947-1.947c1.076 0 1.947 0.872 1.947 1.947-0.001 1.075-0.872 1.946-1.947 1.947z"></path>
<path fill="#f899cc" style="fill: var(--color2, #f899cc)" d="M25.228 3.018h-18.175c-2.148 0.006-3.888 1.746-3.895 3.895v11.502l5.037-5.037c1.542-1.467 3.963-1.467 5.505 0l3.728 3.748 1.152-1.152c1.523-1.515 3.984-1.515 5.507 0l5.036 5.036v-14.097c-0.006-2.148-1.746-3.888-3.895-3.895zM18.088 12.105c-1.076 0-1.947-0.872-1.947-1.947s0.872-1.947 1.947-1.947c1.075 0 1.947 0.872 1.947 1.947-0.001 1.075-0.872 1.946-1.947 1.947z"></path>
<path fill="#ed017f" style="fill: var(--color1, #ed017f)" d="M13.7 13.378c-1.542-1.467-3.963-1.467-5.505 0l-5.037 5.037v6.673c0.006 2.148 1.746 3.888 3.895 3.895h18.175c1.058-0 2.071-0.432 2.804-1.194l-14.333-14.411z"></path>
<path fill="#fce0ef" style="fill: var(--color3, #fce0ef)" d="M29.123 21.009l-5.036-5.036c-1.523-1.515-3.984-1.515-5.507 0l-1.152 1.152 10.599 10.657c0.704-0.72 1.097-1.688 1.096-2.695v-4.079z"></path>
</symbol>
<symbol id="icon-digital" viewBox="0 0 31 32">
<path fill="#f899cc" style="fill: var(--color2, #f899cc)" d="M15.579 16.389l-11.035-6.816 11.035-6.816 11.035 6.816-11.035 6.816z"></path>
<path fill="#ed017f" style="fill: var(--color1, #ed017f)" d="M15.579 29.242v-12.853l11.035-6.816v12.853l-11.035 6.816z"></path>
<path fill="#fce0ef" style="fill: var(--color3, #fce0ef)" d="M15.579 29.242l-11.035-6.816v-12.853l11.035 6.816v12.853z"></path>
</symbol>
<symbol id="icon-diversity" viewBox="0 0 32 32">
<path fill="#f467b2" style="fill: var(--color4, #f467b2)" d="M5.474 21.193c-1.434 0-2.596-1.162-2.596-2.596s1.162-2.596 2.596-2.596c1.434 0 2.596 1.162 2.596 2.596-0.002 1.433-1.163 2.595-2.596 2.596zM5.474 8.21c-1.434 0-2.596-1.162-2.596-2.596s1.162-2.596 2.596-2.596c1.434 0 2.596 1.162 2.596 2.596-0.002 1.433-1.163 2.595-2.596 2.596zM18.456 8.21c-1.434 0-2.596-1.162-2.596-2.596s1.162-2.596 2.596-2.596c1.434 0 2.597 1.162 2.597 2.596-0.002 1.433-1.163 2.595-2.597 2.596zM18.456 21.193c-1.434 0-2.596-1.162-2.596-2.596s1.162-2.596 2.596-2.596c1.434 0 2.597 1.162 2.597 2.596-0.002 1.433-1.163 2.595-2.597 2.596z"></path>
<path fill="#ed017f" style="fill: var(--color1, #ed017f)" d="M13.263 28.982c-1.434 0-2.597-1.162-2.597-2.596s1.163-2.596 2.597-2.596c1.434 0 2.596 1.162 2.596 2.596-0.002 1.433-1.163 2.595-2.596 2.596zM13.263 16c-1.434 0-2.597-1.163-2.597-2.597s1.163-2.596 2.597-2.596c1.434 0 2.596 1.163 2.596 2.596-0.002 1.433-1.163 2.595-2.596 2.597zM26.246 16c-1.434 0-2.596-1.163-2.596-2.597s1.162-2.596 2.596-2.596 2.597 1.163 2.597 2.596c-0.002 1.433-1.163 2.595-2.597 2.597zM26.246 28.982c-1.434 0-2.596-1.162-2.596-2.596s1.162-2.596 2.596-2.596c1.434 0 2.597 1.162 2.597 2.596-0.002 1.433-1.163 2.595-2.597 2.596z"></path>
<path fill="#fce0ef" style="fill: var(--color3, #fce0ef)" d="M16.221 6.912c-0.482-0.798-0.482-1.798 0-2.596h-8.512c0.482 0.798 0.482 1.798 0 2.596h8.512zM5.474 16c0.457 0.003 0.905 0.127 1.298 0.361v-8.512c-0.798 0.482-1.798 0.482-2.596 0v8.512c0.393-0.234 0.841-0.359 1.298-0.361z"></path>
<path fill="#f467b2" style="fill: var(--color4, #f467b2)" d="M26.246 23.789c0.457 0.003 0.905 0.127 1.298 0.361v-8.512c-0.798 0.482-1.798 0.482-2.597 0v8.512c0.393-0.234 0.841-0.359 1.298-0.361zM13.263 23.789c0.457 0.003 0.905 0.127 1.298 0.361v-8.512c-0.798 0.482-1.798 0.482-2.596 0v8.512c0.393-0.234 0.841-0.359 1.298-0.361z"></path>
<path fill="#fce0ef" style="fill: var(--color3, #fce0ef)" d="M16.221 17.298h-1.66v2.596h1.66c-0.482-0.798-0.482-1.798 0-2.596zM11.965 19.895v-2.596h-4.256c0.482 0.798 0.482 1.798 0 2.596h4.256z"></path>
<path fill="#f467b2" style="fill: var(--color4, #f467b2)" d="M24.010 25.088h-8.512c0.482 0.798 0.482 1.798 0 2.596h8.512c-0.482-0.798-0.482-1.798 0-2.596zM24.010 14.702c-0.482-0.798-0.482-1.798 0-2.596h-8.512c0.482 0.798 0.482 1.798 0 2.596h8.512z"></path>
<path fill="#fce0ef" style="fill: var(--color3, #fce0ef)" d="M19.754 12.105v-4.256c-0.798 0.482-1.798 0.482-2.596 0v4.256h2.596zM17.158 14.702v1.66c0.798-0.482 1.798-0.482 2.596 0v-1.66h-2.596z"></path>
</symbol>
<symbol id="icon-House" viewBox="0 0 32 32">
<path fill="#ed017f" style="fill: var(--color1, #ed017f)" d="M26.366 10.727l-7.91-6.934c-0.725-0.649-1.664-1.007-2.637-1.007s-1.911 0.359-2.636 1.007l-7.91 6.934c-0.419 0.374-0.753 0.834-0.98 1.348s-0.343 1.070-0.338 1.632v11.522c0 1.049 0.417 2.055 1.158 2.797s1.748 1.158 2.796 1.158h15.819c1.049 0 2.055-0.417 2.797-1.158s1.158-1.748 1.158-2.797v-11.535c0.003-0.559-0.114-1.113-0.341-1.625s-0.56-0.969-0.977-1.342v0zM18.456 26.546h-5.273v-6.591c0-0.35 0.139-0.685 0.386-0.932s0.582-0.386 0.932-0.386h2.637c0.35 0 0.685 0.139 0.932 0.386s0.386 0.583 0.386 0.932v6.591zM25.047 25.228c0 0.35-0.139 0.685-0.386 0.932s-0.583 0.386-0.932 0.386h-2.637v-6.591c0-1.049-0.417-2.055-1.158-2.796s-1.748-1.158-2.797-1.158h-2.637c-1.049 0-2.055 0.417-2.796 1.158s-1.158 1.747-1.158 2.797v6.591h-2.637c-0.35 0-0.685-0.139-0.932-0.386s-0.386-0.582-0.386-0.932v-11.535c0-0.187 0.040-0.372 0.118-0.543s0.19-0.322 0.331-0.446l7.91-6.921c0.241-0.211 0.55-0.328 0.87-0.328s0.629 0.117 0.87 0.328l7.91 6.921c0.141 0.124 0.253 0.276 0.331 0.446s0.117 0.355 0.118 0.543v11.535z"></path>
</symbol>
<symbol id="icon-integrity" viewBox="0 0 32 32">
<path fill="#fce0ef" style="fill: var(--color3, #fce0ef)" d="M20 2.667c-4.503 0.002-8.362 3.22-9.174 7.649 3.876-2.121 8.737-0.698 10.858 3.178 1.309 2.393 1.309 5.288 0 7.681 5.068-0.928 8.424-5.79 7.496-10.858-0.812-4.432-4.675-7.65-9.181-7.649z"></path>
<path fill="#ed017f" style="fill: var(--color1, #ed017f)" d="M9.333 29.333c3.682 0 6.667-2.985 6.667-6.667s-2.985-6.667-6.667-6.667c-3.682 0-6.667 2.985-6.667 6.667s2.985 6.667 6.667 6.667z"></path>
<path fill="#f899cc" style="fill: var(--color2, #f899cc)" d="M14.667 9.333c-4.111 0-7.553 3.117-7.96 7.208 3.381-1.453 7.3 0.111 8.752 3.492 0.722 1.679 0.722 3.581 0 5.261 4.396-0.437 7.606-4.355 7.169-8.752-0.407-4.092-3.849-7.208-7.961-7.208z"></path>
</symbol>
<symbol id="icon-phone" viewBox="0 0 32 32">
<path fill="#ed017f" style="fill: var(--color1, #ed017f)" d="M25.92 17.333c-0.293 0-0.6-0.093-0.893-0.16-0.594-0.131-1.178-0.305-1.747-0.52-0.619-0.225-1.299-0.213-1.909 0.033s-1.108 0.709-1.398 1.301l-0.293 0.6c-1.299-0.722-2.492-1.62-3.547-2.667-1.047-1.055-1.944-2.248-2.667-3.547l0.56-0.373c0.591-0.289 1.054-0.787 1.301-1.398s0.258-1.29 0.033-1.909c-0.212-0.57-0.385-1.154-0.52-1.747-0.067-0.293-0.12-0.6-0.16-0.907-0.162-0.939-0.654-1.79-1.387-2.398s-1.66-0.935-2.613-0.922h-4c-0.575-0.005-1.144 0.113-1.668 0.347s-0.993 0.579-1.372 1.010c-0.38 0.431-0.662 0.94-0.827 1.49s-0.211 1.13-0.132 1.699c0.71 5.586 3.261 10.776 7.25 14.75s9.188 6.507 14.777 7.197h0.507c0.983 0.001 1.933-0.359 2.667-1.013 0.422-0.377 0.759-0.84 0.989-1.357s0.347-1.077 0.345-1.643v-4c-0.016-0.926-0.354-1.818-0.954-2.523s-1.427-1.18-2.339-1.344zM26.587 25.333c-0 0.189-0.041 0.376-0.119 0.549s-0.192 0.326-0.334 0.451c-0.149 0.129-0.323 0.226-0.511 0.283s-0.387 0.075-0.582 0.050c-4.993-0.64-9.632-2.925-13.183-6.493s-5.814-8.217-6.43-13.214c-0.021-0.195-0.003-0.393 0.055-0.581s0.152-0.362 0.279-0.513c0.125-0.142 0.279-0.256 0.451-0.334s0.359-0.119 0.549-0.119h4c0.31-0.007 0.613 0.095 0.856 0.287s0.412 0.463 0.477 0.767c0.053 0.364 0.12 0.724 0.2 1.080 0.154 0.703 0.359 1.394 0.613 2.067l-1.867 0.867c-0.16 0.073-0.303 0.177-0.422 0.306s-0.212 0.28-0.273 0.445c-0.061 0.165-0.088 0.34-0.081 0.515s0.049 0.348 0.123 0.507c1.919 4.11 5.223 7.414 9.333 9.333 0.325 0.133 0.689 0.133 1.013 0 0.166-0.059 0.319-0.151 0.449-0.27s0.236-0.263 0.311-0.423l0.827-1.867c0.689 0.247 1.393 0.451 2.107 0.613 0.355 0.080 0.715 0.147 1.080 0.2 0.303 0.065 0.574 0.234 0.767 0.477s0.294 0.546 0.287 0.856l0.027 4.16z"></path>
</symbol>
<symbol id="icon-search" viewBox="0 0 32 32">
<path fill="#ed017f" style="fill: var(--color1, #ed017f)" d="M28.947 27.053l-4.947-4.907c1.92-2.394 2.85-5.433 2.598-8.492s-1.665-5.905-3.951-7.953c-2.285-2.048-5.269-3.143-8.337-3.059s-5.987 1.34-8.157 3.51-3.426 5.089-3.51 8.157c-0.084 3.068 1.011 6.051 3.059 8.337s4.894 3.699 7.953 3.951c3.059 0.252 6.097-0.678 8.492-2.598l4.907 4.907c0.124 0.125 0.271 0.224 0.434 0.292s0.337 0.103 0.513 0.103 0.35-0.035 0.513-0.103c0.163-0.068 0.31-0.167 0.434-0.292 0.24-0.249 0.375-0.581 0.375-0.927s-0.134-0.678-0.375-0.927zM14.667 24c-1.846 0-3.65-0.547-5.185-1.573s-2.731-2.483-3.438-4.189c-0.706-1.705-0.891-3.582-0.531-5.393s1.249-3.474 2.554-4.779c1.305-1.305 2.968-2.194 4.779-2.554s3.687-0.175 5.393 0.531 3.163 1.903 4.189 3.438c1.026 1.535 1.573 3.339 1.573 5.185 0 2.475-0.983 4.849-2.734 6.6s-4.124 2.734-6.6 2.734z"></path>
</symbol>
<symbol id="icon-teamwork" viewBox="0 0 32 32">
<path fill="#f899cc" style="fill: var(--color2, #f899cc)" d="M8 22c-0.923 0-1.825-0.274-2.593-0.787s-1.366-1.242-1.719-2.094c-0.353-0.853-0.446-1.791-0.266-2.696s0.625-1.737 1.277-2.389c0.653-0.653 1.484-1.097 2.389-1.277s1.844-0.088 2.696 0.265c0.853 0.353 1.582 0.951 2.094 1.719s0.787 1.67 0.787 2.593c-0.001 1.237-0.494 2.423-1.368 3.298s-2.061 1.367-3.298 1.368z"></path>
<path fill="#f467b2" style="fill: var(--color4, #f467b2)" d="M11.52 20.362c-0.432 0.513-0.971 0.925-1.579 1.208s-1.271 0.429-1.941 0.429-1.333-0.146-1.941-0.429c-0.608-0.283-1.147-0.695-1.579-1.208-0.96 0.595-1.753 1.425-2.303 2.411s-0.841 2.097-0.843 3.226c0 0.354 0.14 0.693 0.391 0.943s0.589 0.39 0.943 0.39h10.667c0.354 0 0.693-0.14 0.943-0.39s0.391-0.589 0.391-0.943c-0.003-1.13-0.293-2.24-0.843-3.226s-1.343-1.816-2.303-2.411v0zM24 22c-0.923 0-1.825-0.274-2.593-0.787s-1.366-1.242-1.719-2.094c-0.353-0.853-0.446-1.791-0.266-2.696s0.625-1.737 1.277-2.389c0.653-0.653 1.484-1.097 2.389-1.277s1.844-0.088 2.696 0.265c0.853 0.353 1.581 0.951 2.094 1.719s0.787 1.67 0.787 2.593c-0.001 1.237-0.494 2.423-1.368 3.298s-2.061 1.367-3.298 1.368z"></path>
<path fill="#f13499" style="fill: var(--color5, #f13499)" d="M27.52 20.362c-0.432 0.513-0.971 0.925-1.579 1.208s-1.271 0.43-1.941 0.43c-0.671 0-1.333-0.147-1.941-0.43s-1.147-0.695-1.579-1.208c-0.96 0.595-1.753 1.425-2.303 2.411s-0.841 2.097-0.843 3.226c0 0.354 0.141 0.693 0.391 0.943s0.589 0.391 0.943 0.391h10.667c0.354 0 0.693-0.141 0.943-0.391s0.39-0.589 0.39-0.943c-0.003-1.13-0.293-2.24-0.843-3.226s-1.343-1.816-2.303-2.411v0z"></path>
<path fill="#ed017f" style="fill: var(--color1, #ed017f)" d="M22.943 7.724l-2.667-2.667c-0.251-0.246-0.589-0.384-0.94-0.382s-0.688 0.142-0.937 0.39c-0.248 0.249-0.389 0.585-0.39 0.937s0.136 0.689 0.382 0.94l0.391 0.391h-5.563l0.391-0.391c0.247-0.251 0.386-0.589 0.385-0.941s-0.142-0.689-0.39-0.939c-0.249-0.249-0.586-0.389-0.939-0.39s-0.69 0.137-0.941 0.385l-2.667 2.667c-0.124 0.124-0.222 0.271-0.289 0.432s-0.102 0.335-0.102 0.51c0 0.175 0.034 0.349 0.102 0.51s0.165 0.309 0.289 0.433l2.667 2.667c0.251 0.247 0.589 0.386 0.941 0.385s0.689-0.142 0.938-0.39 0.389-0.586 0.39-0.939c0.001-0.352-0.137-0.69-0.385-0.941l-0.391-0.391h5.562l-0.391 0.391c-0.25 0.25-0.39 0.589-0.39 0.943s0.14 0.693 0.39 0.943c0.25 0.25 0.589 0.39 0.943 0.39s0.693-0.14 0.943-0.39l2.667-2.667c0.124-0.124 0.222-0.271 0.289-0.433s0.102-0.335 0.102-0.51c0-0.175-0.035-0.348-0.102-0.51s-0.165-0.309-0.289-0.432v0z"></path>
</symbol>
<symbol id="icon-technology" viewBox="0 0 32 32">
<path fill="#ed017f" style="fill: var(--color1, #ed017f)" d="M23.588 19.404l-3.15 2.896c-1.62 1.412-3.522 2.461-5.58 3.077l0.836 3.899c0.043 0.199 0.132 0.385 0.26 0.544s0.291 0.284 0.477 0.368c0.186 0.084 0.388 0.122 0.592 0.113s0.402-0.066 0.579-0.166l5.070-2.86c0.714-0.434 1.271-1.083 1.592-1.853s0.389-1.624 0.193-2.436l-0.868-3.582zM9.994 11.814l2.712-3.219-3.382-0.816c-0.822-0.287-1.72-0.266-2.528 0.058s-1.472 0.929-1.868 1.704l-2.856 5.063c-0.1 0.177-0.157 0.376-0.166 0.579s0.030 0.406 0.113 0.592c0.084 0.186 0.21 0.349 0.368 0.477s0.345 0.217 0.544 0.259l3.989 0.855c0.661-2.030 1.705-3.915 3.075-5.552v0zM22.286 11.867c0.385 0 0.762-0.114 1.082-0.328s0.57-0.518 0.717-0.874c0.147-0.356 0.186-0.747 0.111-1.125s-0.261-0.725-0.533-0.997c-0.272-0.272-0.619-0.458-0.997-0.533s-0.769-0.037-1.125 0.111c-0.356 0.147-0.66 0.397-0.874 0.717s-0.328 0.697-0.328 1.082c0 0.516 0.205 1.012 0.571 1.377s0.86 0.57 1.377 0.571v0z"></path>
<path fill="#f899cc" style="fill: var(--color2, #f899cc)" d="M29.903 3.098c-0.059-0.222-0.175-0.425-0.338-0.588s-0.365-0.279-0.588-0.338c-2.663-0.692-5.468-0.618-8.091 0.214s-4.957 2.388-6.734 4.489l-4.159 4.938c-2.078 2.478-3.396 5.503-3.796 8.712-0.026 0.197-0.006 0.398 0.058 0.586s0.171 0.359 0.311 0.5l4.025 4.025c0.12 0.121 0.264 0.216 0.421 0.282s0.326 0.099 0.497 0.099c0.037 0 0.075-0.002 0.113-0.005 3.258-0.269 6.346-1.57 8.815-3.713l4.756-4.373c2.108-1.772 3.67-4.107 4.504-6.732s0.905-5.433 0.205-8.097v0zM22.286 11.867c-0.385 0-0.762-0.114-1.082-0.328s-0.57-0.518-0.717-0.874c-0.147-0.356-0.186-0.747-0.111-1.125s0.261-0.725 0.533-0.997c0.272-0.272 0.619-0.458 0.997-0.533s0.769-0.037 1.125 0.111c0.356 0.147 0.66 0.397 0.874 0.717s0.328 0.697 0.328 1.082c-0 0.516-0.205 1.012-0.571 1.377s-0.86 0.57-1.377 0.571v0z"></path>
</symbol>
</defs>
</svg>
