<?xml version="1.0" standalone="no"?>
<!DOCTYPE svg PUBLIC "-//W3C//DTD SVG 1.1//EN" "http://www.w3.org/Graphics/SVG/1.1/DTD/svg11.dtd" >
<svg xmlns="http://www.w3.org/2000/svg" xmlns:xlink="http://www.w3.org/1999/xlink" version="1.1">
<metadata>
Created by FontForge 20170924 at Mon Sep  5 08:57:40 2016
 By www-data
Copyright \(c\) 2016 by Chris Simpson.
</metadata>
<defs>
<font id="Metropolis-Black" horiz-adv-x="674" >
  <font-face 
    font-family="Metropolis Black"
    font-weight="900"
    font-stretch="normal"
    units-per-em="1000"
    panose-1="0 0 10 0 0 0 0 0 0 0"
    ascent="795"
    descent="-205"
    x-height="517"
    cap-height="687"
    bbox="-242 -301 1223 987"
    underline-thickness="20"
    underline-position="-133"
    stemh="152"
    stemv="184"
    unicode-range="U+0020-2212"
  />
<missing-glyph horiz-adv-x="500" 
d="M410 795v-1000h-317v1000h317zM333 728h-165v-33h65v-37h-66v-33h166v33h-66v37h66v33zM267 599h-100v-104h166v34h-66v70zM233 565v-36h-33v36h33zM333 468h-166v-33h66v-37h-66v-33h100v70h66v33zM333 408h-33v-66h-133v-34h166v100zM333 286h-100v-56h34v23h33v-47
h-100v80h-33v-113h166v113zM333 113h-166v-113h166v113zM300 80v-47h-100v47h100zM333 -23h-166v-33h70l-70 -47v-33h166v33h-102l70 47h32v33z" />
    <glyph glyph-name=".notdef" horiz-adv-x="500" 
d="M410 795v-1000h-317v1000h317zM333 728h-165v-33h65v-37h-66v-33h166v33h-66v37h66v33zM267 599h-100v-104h166v34h-66v70zM233 565v-36h-33v36h33zM333 468h-166v-33h66v-37h-66v-33h100v70h66v33zM333 408h-33v-66h-133v-34h166v100zM333 286h-100v-56h34v23h33v-47
h-100v80h-33v-113h166v113zM333 113h-166v-113h166v113zM300 80v-47h-100v47h100zM333 -23h-166v-33h70l-70 -47v-33h166v33h-102l70 47h32v33z" />
    <glyph glyph-name="A" unicode="A" horiz-adv-x="749" 
d="M529 0l-35 92h-239l-35 -92h-219l264 687h219l264 -687h-219zM310 235h129l-64 167z" />
    <glyph glyph-name="Aacute" unicode="&#xc1;" horiz-adv-x="749" 
d="M587 880l-152 -136h-126l112 164zM529 0l-35 92h-239l-35 -92h-219l264 687h219l264 -687h-219zM310 235h129l-64 167z" />
    <glyph glyph-name="Abreve" unicode="&#x102;" horiz-adv-x="749" 
d="M546 816c-47 -47 -109 -71 -171 -71s-123 24 -171 71l74 74c27 -27 63 -43 97 -43s70 16 97 43zM529 0l-35 92h-239l-35 -92h-219l264 687h219l264 -687h-219zM310 235h129l-64 167z" />
    <glyph glyph-name="Acircumflex" unicode="&#xc2;" horiz-adv-x="749" 
d="M375 811l-73 -67h-112l108 154h155l109 -154h-113zM529 0l-35 92h-239l-35 -92h-219l264 687h219l264 -687h-219zM310 235h129l-64 167z" />
    <glyph glyph-name="Adieresis" unicode="&#xc4;" horiz-adv-x="749" 
d="M263 745c-50 0 -87 39 -87 87c0 46 37 86 87 86c47 0 86 -40 86 -86c0 -48 -39 -87 -86 -87zM488 745c-49 0 -87 39 -87 87c0 46 38 86 87 86c48 0 86 -40 86 -86c0 -48 -38 -87 -86 -87zM529 0l-35 92h-239l-35 -92h-219l264 687h219l264 -687h-219zM310 235h129
l-64 167z" />
    <glyph glyph-name="Agrave" unicode="&#xc0;" horiz-adv-x="749" 
d="M443 744h-126l-152 136l166 28zM529 0l-35 92h-239l-35 -92h-219l264 687h219l264 -687h-219zM310 235h129l-64 167z" />
    <glyph glyph-name="Amacron" unicode="&#x100;" horiz-adv-x="749" 
d="M559 849v-106h-369v106h369zM529 0l-35 92h-239l-35 -92h-219l264 687h219l264 -687h-219zM310 235h129l-64 167z" />
    <glyph glyph-name="Aogonek" unicode="&#x104;" horiz-adv-x="749" 
d="M779 -56l22 -82c-22 -20 -54 -35 -93 -35c-66 0 -112 44 -112 114c0 23 5 42 15 59h-82l-35 92h-239l-35 -92h-219l264 687h219l264 -687c-23 0 -38 -15 -38 -36s16 -30 39 -30c11 0 23 4 30 10zM310 235h129l-64 167z" />
    <glyph glyph-name="Aring" unicode="&#xc5;" horiz-adv-x="749" 
d="M375 745c-66 0 -121 54 -121 121s55 121 121 121c67 0 121 -54 121 -121s-54 -121 -121 -121zM375 915c-27 0 -49 -22 -49 -49s22 -49 49 -49s49 22 49 49s-22 49 -49 49zM529 0l-35 92h-239l-35 -92h-219l264 687h219l264 -687h-219zM310 235h129l-64 167z" />
    <glyph glyph-name="Atilde" unicode="&#xc3;" horiz-adv-x="749" 
d="M311 782c-20 0 -31 -13 -37 -42l-90 13c11 95 48 141 121 141c54 0 107 -41 133 -41c20 0 31 14 37 42l90 -13c-10 -95 -48 -141 -121 -141c-55 0 -106 41 -133 41zM529 0l-35 92h-239l-35 -92h-219l264 687h219l264 -687h-219zM310 235h129l-64 167z" />
    <glyph glyph-name="AE" unicode="&#xc6;" horiz-adv-x="1113" 
d="M1075 514h-359v-77h327v-173h-327v-91h359v-173h-553v92h-244l-53 -92h-224l397 687h677v-173zM361 235h161v279z" />
    <glyph glyph-name="B" unicode="B" horiz-adv-x="711" 
d="M60 0v687h370c131 0 222 -73 222 -173c0 -67 -35 -125 -95 -154c80 -34 127 -99 127 -175c0 -110 -100 -185 -240 -185h-384zM253 420h130c40 0 69 22 69 52s-29 52 -69 52h-130v-104zM253 163h159c42 0 72 23 72 55s-30 55 -72 55h-159v-110z" />
    <glyph glyph-name="C" unicode="C" horiz-adv-x="706" 
d="M408 -12c-203 0 -374 163 -374 356s171 355 374 355c110 0 210 -47 279 -121l-143 -125c-32 42 -82 70 -136 70c-94 0 -174 -82 -174 -179c0 -98 80 -180 174 -180c55 0 104 28 137 70l142 -124c-69 -75 -169 -122 -279 -122z" />
    <glyph glyph-name="Cacute" unicode="&#x106;" horiz-adv-x="706" 
d="M264 744l112 164l166 -28l-152 -136h-126zM408 -12c-203 0 -374 163 -374 356s171 355 374 355c110 0 210 -47 279 -121l-143 -125c-32 42 -82 70 -136 70c-94 0 -174 -82 -174 -179c0 -98 80 -180 174 -180c55 0 104 28 137 70l142 -124c-69 -75 -169 -122 -279 -122z
" />
    <glyph glyph-name="Ccaron" unicode="&#x10c;" horiz-adv-x="706" 
d="M306 744l-108 154h112l73 -67l74 67h113l-109 -154h-155zM408 -12c-203 0 -374 163 -374 356s171 355 374 355c110 0 210 -47 279 -121l-143 -125c-32 42 -82 70 -136 70c-94 0 -174 -82 -174 -179c0 -98 80 -180 174 -180c55 0 104 28 137 70l142 -124
c-69 -75 -169 -122 -279 -122z" />
    <glyph glyph-name="Ccedilla" unicode="&#xc7;" horiz-adv-x="706" 
d="M408 164c55 0 104 28 137 70l142 -124c-62 -67 -149 -112 -246 -121l-14 -31c44 -2 73 -31 73 -69c0 -56 -48 -89 -115 -89c-38 0 -76 13 -99 30l31 68c17 -14 38 -23 58 -23c19 0 36 9 36 25c0 14 -11 22 -28 22c-9 0 -19 -3 -27 -8l-26 24l23 54
c-178 26 -319 177 -319 352c0 193 171 355 374 355c110 0 210 -47 279 -121l-143 -125c-32 42 -82 70 -136 70c-94 0 -174 -82 -174 -179c0 -98 80 -180 174 -180z" />
    <glyph glyph-name="D" unicode="D" horiz-adv-x="760" 
d="M60 0v687h256c240 0 410 -142 410 -343s-170 -344 -410 -344h-256zM254 176h94c104 0 178 70 178 168s-74 167 -178 167h-94v-335z" />
    <glyph glyph-name="Eth" unicode="&#xd0;" horiz-adv-x="818" 
d="M374 687c240 0 410 -142 410 -343s-170 -344 -410 -344h-256v258h-78v173h78v256h256zM406 176c104 0 178 70 178 168s-74 167 -178 167h-94v-80h127l-1 -173h-126v-82h94z" />
    <glyph glyph-name="Dcaron" unicode="&#x10e;" horiz-adv-x="760" 
d="M239 744l-108 154h112l73 -67l74 67h113l-109 -154h-155zM60 0v687h256c240 0 410 -142 410 -343s-170 -344 -410 -344h-256zM254 176h94c104 0 178 70 178 168s-74 167 -178 167h-94v-335z" />
    <glyph glyph-name="Dcroat" unicode="&#x110;" horiz-adv-x="818" 
d="M374 687c240 0 410 -142 410 -343s-170 -344 -410 -344h-256v258h-78v173h78v256h256zM406 176c104 0 178 70 178 168s-74 167 -178 167h-94v-80h127l-1 -173h-126v-82h94z" />
    <glyph glyph-name="E" unicode="E" horiz-adv-x="651" 
d="M613 514h-359v-77h327v-173h-327v-91h359v-173h-553v687h553v-173z" />
    <glyph glyph-name="Eacute" unicode="&#xc9;" horiz-adv-x="651" 
d="M496 880l-152 -136h-126l112 164zM613 514h-359v-77h327v-173h-327v-91h359v-173h-553v687h553v-173z" />
    <glyph glyph-name="Ecaron" unicode="&#x11a;" horiz-adv-x="651" 
d="M415 744h-155l-108 154h112l73 -67l74 67h113zM613 514h-359v-77h327v-173h-327v-91h359v-173h-553v687h553v-173z" />
    <glyph glyph-name="Ecircumflex" unicode="&#xca;" horiz-adv-x="651" 
d="M337 811l-73 -67h-112l108 154h155l109 -154h-113zM613 514h-359v-77h327v-173h-327v-91h359v-173h-553v687h553v-173z" />
    <glyph glyph-name="Edieresis" unicode="&#xcb;" horiz-adv-x="651" 
d="M225 745c-50 0 -87 39 -87 87c0 46 37 86 87 86c47 0 86 -40 86 -86c0 -48 -39 -87 -86 -87zM450 745c-49 0 -87 39 -87 87c0 46 38 86 87 86c48 0 86 -40 86 -86c0 -48 -38 -87 -86 -87zM613 514h-359v-77h327v-173h-327v-91h359v-173h-553v687h553v-173z" />
    <glyph glyph-name="Edotaccent" unicode="&#x116;" horiz-adv-x="651" 
d="M337 745c-50 0 -87 39 -87 87c0 46 37 86 87 86c47 0 86 -40 86 -86c0 -48 -39 -87 -86 -87zM613 514h-359v-77h327v-173h-327v-91h359v-173h-553v687h553v-173z" />
    <glyph glyph-name="uni1EB8" unicode="&#x1eb8;" horiz-adv-x="651" 
d="M613 514h-359v-77h327v-173h-327v-91h359v-173h-553v687h553v-173zM338 -64c47 0 86 -40 86 -86c0 -48 -39 -87 -86 -87c-50 0 -87 39 -87 87c0 46 37 86 87 86z" />
    <glyph glyph-name="Egrave" unicode="&#xc8;" horiz-adv-x="651" 
d="M446 744h-126l-152 136l166 28zM613 514h-359v-77h327v-173h-327v-91h359v-173h-553v687h553v-173z" />
    <glyph glyph-name="Emacron" unicode="&#x112;" horiz-adv-x="651" 
d="M521 849v-106h-369v106h369zM613 514h-359v-77h327v-173h-327v-91h359v-173h-553v687h553v-173z" />
    <glyph glyph-name="Eogonek" unicode="&#x118;" horiz-adv-x="651" 
d="M613 514h-359v-77h327v-173h-327v-91h359v-173h-53c-23 0 -38 -15 -38 -36s16 -30 39 -30c11 0 23 4 30 10l22 -82c-22 -20 -54 -35 -93 -35c-66 0 -112 44 -112 114c0 23 5 42 15 59h-363v687h553v-173z" />
    <glyph glyph-name="uni1EBC" unicode="&#x1ebc;" horiz-adv-x="651" 
d="M273 782c-20 0 -31 -13 -37 -42l-90 13c11 95 48 141 121 141c54 0 107 -41 133 -41c20 0 31 14 37 42l90 -13c-10 -95 -48 -141 -121 -141c-55 0 -106 41 -133 41zM613 514h-359v-77h327v-173h-327v-91h359v-173h-553v687h553v-173z" />
    <glyph glyph-name="F" unicode="F" horiz-adv-x="651" 
d="M613 514h-359v-97h327v-173h-327v-244h-194v687h553v-173z" />
    <glyph glyph-name="G" unicode="G" horiz-adv-x="741" 
d="M375 259v143h322v-292c-71 -77 -176 -122 -284 -122c-206 0 -379 163 -379 356s173 355 379 355c108 0 213 -45 284 -121l-143 -125c-34 44 -86 70 -141 70c-97 0 -179 -82 -179 -179c0 -98 82 -180 179 -180c34 0 67 10 96 28v67h-134z" />
    <glyph glyph-name="Gbreve" unicode="&#x11e;" horiz-adv-x="741" 
d="M584 816c-47 -47 -109 -71 -171 -71s-123 24 -171 71l74 74c27 -27 63 -43 97 -43s70 16 97 43zM375 259v143h322v-292c-71 -77 -176 -122 -284 -122c-206 0 -379 163 -379 356s173 355 379 355c108 0 213 -45 284 -121l-143 -125c-34 44 -86 70 -141 70
c-97 0 -179 -82 -179 -179c0 -98 82 -180 179 -180c34 0 67 10 96 28v67h-134z" />
    <glyph glyph-name="Gcommaaccent" unicode="&#x122;" horiz-adv-x="741" 
d="M375 259v143h322v-292c-71 -77 -176 -122 -284 -122c-206 0 -379 163 -379 356s173 355 379 355c108 0 213 -45 284 -121l-143 -125c-34 44 -86 70 -141 70c-97 0 -179 -82 -179 -179c0 -98 82 -180 179 -180c34 0 67 10 96 28v67h-134zM412 -23c51 0 87 -48 87 -114
c0 -55 -34 -115 -93 -164l-46 36c25 20 43 46 49 70c-44 0 -81 39 -81 85c0 48 38 87 84 87z" />
    <glyph glyph-name="H" unicode="H" horiz-adv-x="759" 
d="M505 687h194v-687h-194v264h-251v-264h-194v687h194v-250h251v250z" />
    <glyph glyph-name="I" unicode="I" horiz-adv-x="321" 
d="M64 0v687h194v-687h-194z" />
    <glyph glyph-name="Iacute" unicode="&#xcd;" horiz-adv-x="321" 
d="M96 744l112 164l166 -28l-152 -136h-126zM64 0v687h194v-687h-194z" />
    <glyph glyph-name="Icircumflex" unicode="&#xce;" horiz-adv-x="321" 
d="M-24 744l108 154h155l109 -154h-113l-74 67l-73 -67h-112zM64 0v687h194v-687h-194z" />
    <glyph glyph-name="Idieresis" unicode="&#xcf;" horiz-adv-x="321" 
d="M49 745c-50 0 -87 39 -87 87c0 46 37 86 87 86c47 0 86 -40 86 -86c0 -48 -39 -87 -86 -87zM274 745c-49 0 -87 39 -87 87c0 46 38 86 87 86c48 0 86 -40 86 -86c0 -48 -38 -87 -86 -87zM64 0v687h194v-687h-194z" />
    <glyph glyph-name="Idotaccent" unicode="&#x130;" horiz-adv-x="321" 
d="M161 745c-50 0 -87 39 -87 87c0 46 37 86 87 86c47 0 86 -40 86 -86c0 -48 -39 -87 -86 -87zM64 0v687h194v-687h-194z" />
    <glyph glyph-name="Igrave" unicode="&#xcc;" horiz-adv-x="321" 
d="M98 744l-152 136l166 28l112 -164h-126zM64 0v687h194v-687h-194z" />
    <glyph glyph-name="Imacron" unicode="&#x12a;" horiz-adv-x="321" 
d="M-24 743v106h369v-106h-369zM64 0v687h194v-687h-194z" />
    <glyph glyph-name="Iogonek" unicode="&#x12e;" horiz-adv-x="321" 
d="M259 -56l22 -82c-22 -20 -54 -35 -93 -35c-66 0 -112 44 -112 114c0 23 5 42 15 59h-27v687h194v-687h-30c-23 0 -38 -15 -38 -36s16 -30 39 -30c11 0 23 4 30 10z" />
    <glyph glyph-name="J" unicode="J" horiz-adv-x="548" 
d="M246 -12c-93 0 -194 47 -243 114l125 122c19 -35 57 -60 92 -60c47 0 81 33 81 80v443h194v-463c0 -138 -103 -236 -249 -236z" />
    <glyph glyph-name="K" unicode="K" horiz-adv-x="725" 
d="M60 0v687h194v-271l231 271h229l-254 -287l274 -400h-232l-177 260l-71 -78v-182h-194z" />
    <glyph glyph-name="Kcommaaccent" unicode="&#x136;" horiz-adv-x="725" 
d="M60 0v687h194v-271l231 271h229l-254 -287l274 -400h-232l-177 260l-71 -78v-182h-194zM368 -301l-46 36c25 20 43 46 49 70c-44 0 -81 39 -81 85c0 48 38 87 84 87c51 0 87 -48 87 -114c0 -55 -34 -115 -93 -164z" />
    <glyph glyph-name="L" unicode="L" horiz-adv-x="597" 
d="M254 173h320v-173h-514v687h194v-514z" />
    <glyph glyph-name="Lacute" unicode="&#x139;" horiz-adv-x="597" 
d="M366 880l-152 -136h-126l112 164zM254 173h320v-173h-514v687h194v-514z" />
    <glyph glyph-name="Lcaron" unicode="&#x13d;" horiz-adv-x="597" 
d="M395 526c-44 0 -81 39 -81 85c0 48 38 87 84 87c51 0 87 -48 87 -114c0 -55 -34 -115 -93 -164l-46 36c25 20 43 46 49 70zM254 173h320v-173h-514v687h194v-514z" />
    <glyph glyph-name="Lslash" unicode="&#x141;" horiz-adv-x="623" 
d="M280 173h320v-173h-514v211l-68 -33v167l68 33v309h194v-213l104 51v-167l-104 -51v-134z" />
    <glyph glyph-name="M" unicode="M" horiz-adv-x="876" 
d="M60 0v687h194l184 -328l184 328h194v-687h-194v368l-184 -328l-184 328v-368h-194z" />
    <glyph glyph-name="N" unicode="N" horiz-adv-x="776" 
d="M60 0v687h194l268 -368v368h194v-687h-194l-268 368v-368h-194z" />
    <glyph glyph-name="Nacute" unicode="&#x143;" horiz-adv-x="776" 
d="M269 744l112 164l166 -28l-152 -136h-126zM60 0v687h194l268 -368v368h194v-687h-194l-268 368v-368h-194z" />
    <glyph glyph-name="Ncaron" unicode="&#x147;" horiz-adv-x="776" 
d="M311 744l-108 154h112l73 -67l74 67h113l-109 -154h-155zM60 0v687h194l268 -368v368h194v-687h-194l-268 368v-368h-194z" />
    <glyph glyph-name="Ncommaaccent" unicode="&#x145;" horiz-adv-x="776" 
d="M60 0v687h194l268 -368v368h194v-687h-194l-268 368v-368h-194zM382 -301l-46 36c25 20 43 46 49 70c-44 0 -81 39 -81 85c0 48 38 87 84 87c51 0 87 -48 87 -114c0 -55 -34 -115 -93 -164z" />
    <glyph glyph-name="Ntilde" unicode="&#xd1;" horiz-adv-x="776" 
d="M457 741c-55 0 -106 41 -133 41c-20 0 -31 -13 -37 -42l-90 13c11 95 48 141 121 141c54 0 107 -41 133 -41c20 0 31 14 37 42l90 -13c-10 -95 -48 -141 -121 -141zM60 0v687h194l268 -368v368h194v-687h-194l-268 368v-368h-194z" />
    <glyph glyph-name="O" unicode="O" horiz-adv-x="815" 
d="M408 -12c-203 0 -374 163 -374 356s171 355 374 355s374 -162 374 -355s-171 -356 -374 -356zM408 164c94 0 174 82 174 180c0 97 -80 179 -174 179s-174 -82 -174 -179c0 -98 80 -180 174 -180z" />
    <glyph glyph-name="Oacute" unicode="&#xd3;" horiz-adv-x="815" 
d="M340 744l112 164l166 -28l-152 -136h-126zM408 -12c-203 0 -374 163 -374 356s171 355 374 355s374 -162 374 -355s-171 -356 -374 -356zM408 164c94 0 174 82 174 180c0 97 -80 179 -174 179s-174 -82 -174 -179c0 -98 80 -180 174 -180z" />
    <glyph glyph-name="Ocircumflex" unicode="&#xd4;" horiz-adv-x="815" 
d="M223 744l108 154h155l109 -154h-113l-74 67l-73 -67h-112zM408 -12c-203 0 -374 163 -374 356s171 355 374 355s374 -162 374 -355s-171 -356 -374 -356zM408 164c94 0 174 82 174 180c0 97 -80 179 -174 179s-174 -82 -174 -179c0 -98 80 -180 174 -180z" />
    <glyph glyph-name="Odieresis" unicode="&#xd6;" horiz-adv-x="815" 
d="M296 745c-50 0 -87 39 -87 87c0 46 37 86 87 86c47 0 86 -40 86 -86c0 -48 -39 -87 -86 -87zM521 745c-49 0 -87 39 -87 87c0 46 38 86 87 86c48 0 86 -40 86 -86c0 -48 -38 -87 -86 -87zM408 -12c-203 0 -374 163 -374 356s171 355 374 355s374 -162 374 -355
s-171 -356 -374 -356zM408 164c94 0 174 82 174 180c0 97 -80 179 -174 179s-174 -82 -174 -179c0 -98 80 -180 174 -180z" />
    <glyph glyph-name="Ograve" unicode="&#xd2;" horiz-adv-x="815" 
d="M346 744l-152 136l166 28l112 -164h-126zM408 -12c-203 0 -374 163 -374 356s171 355 374 355s374 -162 374 -355s-171 -356 -374 -356zM408 164c94 0 174 82 174 180c0 97 -80 179 -174 179s-174 -82 -174 -179c0 -98 80 -180 174 -180z" />
    <glyph glyph-name="Ohungarumlaut" unicode="&#x150;" horiz-adv-x="815" 
d="M206 744l112 164l166 -28l-152 -136h-126zM464 744l112 164l166 -28l-152 -136h-126zM408 -12c-203 0 -374 163 -374 356s171 355 374 355s374 -162 374 -355s-171 -356 -374 -356zM408 164c94 0 174 82 174 180c0 97 -80 179 -174 179s-174 -82 -174 -179
c0 -98 80 -180 174 -180z" />
    <glyph glyph-name="Omacron" unicode="&#x14c;" horiz-adv-x="815" 
d="M223 743v106h369v-106h-369zM408 -12c-203 0 -374 163 -374 356s171 355 374 355s374 -162 374 -355s-171 -356 -374 -356zM408 164c94 0 174 82 174 180c0 97 -80 179 -174 179s-174 -82 -174 -179c0 -98 80 -180 174 -180z" />
    <glyph glyph-name="Oslash" unicode="&#xd8;" horiz-adv-x="815" 
d="M685 580c60 -63 97 -146 97 -236c0 -193 -171 -356 -374 -356c-64 0 -125 16 -178 44l-27 -32h-160l89 107c-61 63 -98 147 -98 237c0 193 171 355 374 355c64 0 125 -16 178 -44l27 32h160zM234 344c0 -31 8 -61 22 -87l212 255c-19 7 -39 11 -60 11
c-94 0 -174 -82 -174 -179zM408 164c94 0 174 82 174 180c0 31 -8 60 -22 86l-212 -255c19 -7 39 -11 60 -11z" />
    <glyph glyph-name="Otilde" unicode="&#xd5;" horiz-adv-x="815" 
d="M477 741c-55 0 -106 41 -133 41c-20 0 -31 -13 -37 -42l-90 13c11 95 48 141 121 141c54 0 107 -41 133 -41c20 0 31 14 37 42l90 -13c-10 -95 -48 -141 -121 -141zM408 -12c-203 0 -374 163 -374 356s171 355 374 355s374 -162 374 -355s-171 -356 -374 -356zM408 164
c94 0 174 82 174 180c0 97 -80 179 -174 179s-174 -82 -174 -179c0 -98 80 -180 174 -180z" />
    <glyph glyph-name="OE" unicode="&#x152;" horiz-adv-x="1046" 
d="M1008 514h-359v-77h327v-173h-327v-91h359v-173h-600c-203 0 -374 151 -374 344s171 343 374 343h600v-173zM408 176h47v335h-47c-94 0 -174 -70 -174 -167c0 -98 80 -168 174 -168z" />
    <glyph glyph-name="P" unicode="P" horiz-adv-x="670" 
d="M60 0v687h329c154 0 263 -99 263 -240s-109 -240 -263 -240h-135v-207h-194zM254 383h119c46 0 79 27 79 64s-33 64 -79 64h-119v-128z" />
    <glyph glyph-name="Thorn" unicode="&#xde;" horiz-adv-x="670" 
d="M60 0v687h189v-102h140c154 0 263 -99 263 -240s-109 -240 -263 -240h-135v-105h-194zM254 281h119c46 0 79 27 79 64s-33 64 -79 64h-119v-128z" />
    <glyph glyph-name="Q" unicode="Q" horiz-adv-x="815" 
d="M782 344c0 -69 -22 -134 -59 -189l57 -49l-91 -106l-64 56c-62 -43 -137 -68 -217 -68c-203 0 -374 163 -374 356s171 355 374 355s374 -162 374 -355zM408 164c26 0 50 6 73 17l-61 53l91 106l62 -54c6 19 9 38 9 58c0 97 -80 179 -174 179s-174 -82 -174 -179
c0 -98 80 -180 174 -180z" />
    <glyph glyph-name="R" unicode="R" horiz-adv-x="697" 
d="M680 0h-221l-145 207h-60v-207h-194v687h329c154 0 263 -99 263 -240c0 -98 -52 -175 -136 -214zM254 511v-128h119c46 0 79 27 79 64s-33 64 -79 64h-119z" />
    <glyph glyph-name="Racute" unicode="&#x154;" horiz-adv-x="697" 
d="M501 880l-152 -136h-126l112 164zM680 0h-221l-145 207h-60v-207h-194v687h329c154 0 263 -99 263 -240c0 -98 -52 -175 -136 -214zM254 511v-128h119c46 0 79 27 79 64s-33 64 -79 64h-119z" />
    <glyph glyph-name="Rcaron" unicode="&#x158;" horiz-adv-x="697" 
d="M420 744h-155l-108 154h112l73 -67l74 67h113zM680 0h-221l-145 207h-60v-207h-194v687h329c154 0 263 -99 263 -240c0 -98 -52 -175 -136 -214zM254 511v-128h119c46 0 79 27 79 64s-33 64 -79 64h-119z" />
    <glyph glyph-name="Rcommaaccent" unicode="&#x156;" horiz-adv-x="697" 
d="M516 233l164 -233h-221l-145 207h-60v-207h-194v687h329c154 0 263 -99 263 -240c0 -98 -52 -175 -136 -214zM254 511v-128h119c46 0 79 27 79 64s-33 64 -79 64h-119zM349 -23c51 0 87 -48 87 -114c0 -55 -34 -115 -93 -164l-46 36c25 20 43 46 49 70
c-44 0 -81 39 -81 85c0 48 38 87 84 87z" />
    <glyph glyph-name="S" unicode="S" horiz-adv-x="646" 
d="M336 -12c-124 0 -241 39 -328 116l108 129c70 -55 146 -84 227 -84c53 0 81 18 81 48c0 33 -24 38 -119 60c-149 34 -264 73 -264 216c0 137 108 226 271 226c119 0 212 -32 288 -93l-97 -137c-64 46 -134 69 -196 69c-47 0 -70 -19 -70 -45c0 -35 24 -46 122 -67
c160 -34 260 -77 260 -208c0 -145 -111 -230 -283 -230z" />
    <glyph glyph-name="Sacute" unicode="&#x15a;" horiz-adv-x="646" 
d="M193 744l112 164l166 -28l-152 -136h-126zM336 -12c-124 0 -241 39 -328 116l108 129c70 -55 146 -84 227 -84c53 0 81 18 81 48c0 33 -24 38 -119 60c-149 34 -264 73 -264 216c0 137 108 226 271 226c119 0 212 -32 288 -93l-97 -137c-64 46 -134 69 -196 69
c-47 0 -70 -19 -70 -45c0 -35 24 -46 122 -67c160 -34 260 -77 260 -208c0 -145 -111 -230 -283 -230z" />
    <glyph glyph-name="Scaron" unicode="&#x160;" horiz-adv-x="646" 
d="M235 744l-108 154h112l73 -67l74 67h113l-109 -154h-155zM336 -12c-124 0 -241 39 -328 116l108 129c70 -55 146 -84 227 -84c53 0 81 18 81 48c0 33 -24 38 -119 60c-149 34 -264 73 -264 216c0 137 108 226 271 226c119 0 212 -32 288 -93l-97 -137
c-64 46 -134 69 -196 69c-47 0 -70 -19 -70 -45c0 -35 24 -46 122 -67c160 -34 260 -77 260 -208c0 -145 -111 -230 -283 -230z" />
    <glyph glyph-name="Scedilla" unicode="&#x15e;" horiz-adv-x="646" 
d="M619 218c0 -135 -96 -218 -248 -229l-14 -31c44 -2 73 -31 73 -69c0 -56 -48 -89 -115 -89c-38 0 -76 13 -99 30l31 68c17 -14 38 -23 58 -23c19 0 36 9 36 25c0 14 -11 22 -28 22c-9 0 -19 -3 -27 -8l-26 24l22 52c-103 10 -200 48 -274 114l108 129
c70 -55 146 -84 227 -84c53 0 81 18 81 48c0 33 -24 38 -119 60c-149 34 -264 73 -264 216c0 137 108 226 271 226c119 0 212 -32 288 -93l-97 -137c-64 46 -134 69 -196 69c-47 0 -70 -19 -70 -45c0 -35 24 -46 122 -67c160 -34 260 -77 260 -208z" />
    <glyph glyph-name="T" unicode="T" horiz-adv-x="645" 
d="M226 0v514h-203v173h600v-173h-203v-514h-194z" />
    <glyph glyph-name="Tcaron" unicode="&#x164;" horiz-adv-x="645" 
d="M246 744l-108 154h112l73 -67l74 67h113l-109 -154h-155zM226 0v514h-203v173h600v-173h-203v-514h-194z" />
    <glyph glyph-name="uni0162" unicode="&#x162;" horiz-adv-x="645" 
d="M420 0h-48l-18 -42c44 -2 73 -31 73 -69c0 -56 -48 -89 -115 -89c-38 0 -76 13 -99 30l31 68c17 -14 38 -23 58 -23c19 0 36 9 36 25c0 14 -11 22 -28 22c-9 0 -19 -3 -27 -8l-26 24l26 62h-57v514h-203v173h600v-173h-203v-514z" />
    <glyph glyph-name="U" unicode="U" horiz-adv-x="761" 
d="M381 -12c-192 0 -327 131 -327 317v382h194v-372c0 -88 55 -151 133 -151s133 63 133 151v372h194v-382c0 -186 -135 -317 -327 -317z" />
    <glyph glyph-name="Uacute" unicode="&#xda;" horiz-adv-x="761" 
d="M262 744l112 164l166 -28l-152 -136h-126zM381 -12c-192 0 -327 131 -327 317v382h194v-372c0 -88 55 -151 133 -151s133 63 133 151v372h194v-382c0 -186 -135 -317 -327 -317z" />
    <glyph glyph-name="Ucircumflex" unicode="&#xdb;" horiz-adv-x="761" 
d="M196 744l108 154h155l109 -154h-113l-74 67l-73 -67h-112zM381 -12c-192 0 -327 131 -327 317v382h194v-372c0 -88 55 -151 133 -151s133 63 133 151v372h194v-382c0 -186 -135 -317 -327 -317z" />
    <glyph glyph-name="Udieresis" unicode="&#xdc;" horiz-adv-x="761" 
d="M269 745c-50 0 -87 39 -87 87c0 46 37 86 87 86c47 0 86 -40 86 -86c0 -48 -39 -87 -86 -87zM494 745c-49 0 -87 39 -87 87c0 46 38 86 87 86c48 0 86 -40 86 -86c0 -48 -38 -87 -86 -87zM381 -12c-192 0 -327 131 -327 317v382h194v-372c0 -88 55 -151 133 -151
s133 63 133 151v372h194v-382c0 -186 -135 -317 -327 -317z" />
    <glyph glyph-name="Ugrave" unicode="&#xd9;" horiz-adv-x="761" 
d="M364 744l-152 136l166 28l112 -164h-126zM381 -12c-192 0 -327 131 -327 317v382h194v-372c0 -88 55 -151 133 -151s133 63 133 151v372h194v-382c0 -186 -135 -317 -327 -317z" />
    <glyph glyph-name="Uhungarumlaut" unicode="&#x170;" horiz-adv-x="761" 
d="M163 744l112 164l166 -28l-152 -136h-126zM421 744l112 164l166 -28l-152 -136h-126zM381 -12c-192 0 -327 131 -327 317v382h194v-372c0 -88 55 -151 133 -151s133 63 133 151v372h194v-382c0 -186 -135 -317 -327 -317z" />
    <glyph glyph-name="Umacron" unicode="&#x16a;" horiz-adv-x="761" 
d="M196 743v106h369v-106h-369zM381 -12c-192 0 -327 131 -327 317v382h194v-372c0 -88 55 -151 133 -151s133 63 133 151v372h194v-382c0 -186 -135 -317 -327 -317z" />
    <glyph glyph-name="Uogonek" unicode="&#x172;" horiz-adv-x="761" 
d="M514 687h194v-382c0 -178 -123 -305 -302 -316c-6 -7 -9 -15 -9 -25c0 -21 16 -30 39 -30c11 0 23 4 30 10l22 -82c-22 -20 -54 -35 -93 -35c-66 0 -112 44 -112 114c0 22 5 40 13 56c-146 33 -242 151 -242 308v382h194v-372c0 -88 55 -151 133 -151s133 63 133 151v372
z" />
    <glyph glyph-name="Uring" unicode="&#x16e;" horiz-adv-x="761" 
d="M381 745c-66 0 -121 54 -121 121s55 121 121 121c67 0 121 -54 121 -121s-54 -121 -121 -121zM381 817c27 0 49 22 49 49s-22 49 -49 49s-49 -22 -49 -49s22 -49 49 -49zM381 -12c-192 0 -327 131 -327 317v382h194v-372c0 -88 55 -151 133 -151s133 63 133 151v372h194
v-382c0 -186 -135 -317 -327 -317z" />
    <glyph glyph-name="V" unicode="V" horiz-adv-x="749" 
d="M529 687h219l-264 -687h-219l-264 687h219l155 -402z" />
    <glyph glyph-name="W" unicode="W" horiz-adv-x="1076" 
d="M199 0l-191 687h209l84 -397l133 397h209l132 -397l84 397h209l-190 -687h-196l-143 397l-144 -397h-196z" />
    <glyph glyph-name="Wacute" unicode="&#x1e82;" horiz-adv-x="1076" 
d="M472 744l112 164l166 -28l-152 -136h-126zM199 0l-191 687h209l84 -397l133 397h209l132 -397l84 397h209l-190 -687h-196l-143 397l-144 -397h-196z" />
    <glyph glyph-name="Wcircumflex" unicode="&#x174;" horiz-adv-x="1076" 
d="M354 744l108 154h155l109 -154h-113l-74 67l-73 -67h-112zM199 0l-191 687h209l84 -397l133 397h209l132 -397l84 397h209l-190 -687h-196l-143 397l-144 -397h-196z" />
    <glyph glyph-name="Wdieresis" unicode="&#x1e84;" horiz-adv-x="1076" 
d="M427 745c-50 0 -87 39 -87 87c0 46 37 86 87 86c47 0 86 -40 86 -86c0 -48 -39 -87 -86 -87zM652 745c-49 0 -87 39 -87 87c0 46 38 86 87 86c48 0 86 -40 86 -86c0 -48 -38 -87 -86 -87zM199 0l-191 687h209l84 -397l133 397h209l132 -397l84 397h209l-190 -687h-196
l-143 397l-144 -397h-196z" />
    <glyph glyph-name="Wgrave" unicode="&#x1e80;" horiz-adv-x="1076" 
d="M477 744l-152 136l166 28l112 -164h-126zM199 0l-191 687h209l84 -397l133 397h209l132 -397l84 397h209l-190 -687h-196l-143 397l-144 -397h-196z" />
    <glyph glyph-name="X" unicode="X" horiz-adv-x="721" 
d="M717 687l-244 -342l244 -345h-227l-131 185l-132 -185h-223l244 342l-244 345h227l131 -185l132 185h223z" />
    <glyph glyph-name="Y" unicode="Y" horiz-adv-x="709" 
d="M258 0v226l-264 461h222l139 -279l147 279h213l-263 -461v-226h-194z" />
    <glyph glyph-name="Yacute" unicode="&#xdd;" horiz-adv-x="709" 
d="M236 744l112 164l166 -28l-152 -136h-126zM258 0v226l-264 461h222l139 -279l147 279h213l-263 -461v-226h-194z" />
    <glyph glyph-name="Ycircumflex" unicode="&#x176;" horiz-adv-x="709" 
d="M170 744l108 154h155l109 -154h-113l-74 67l-73 -67h-112zM258 0v226l-264 461h222l139 -279l147 279h213l-263 -461v-226h-194z" />
    <glyph glyph-name="Ydieresis" unicode="&#x178;" horiz-adv-x="709" 
d="M243 745c-50 0 -87 39 -87 87c0 46 37 86 87 86c47 0 86 -40 86 -86c0 -48 -39 -87 -86 -87zM468 745c-49 0 -87 39 -87 87c0 46 38 86 87 86c48 0 86 -40 86 -86c0 -48 -38 -87 -86 -87zM258 0v226l-264 461h222l139 -279l147 279h213l-263 -461v-226h-194z" />
    <glyph glyph-name="Ygrave" unicode="&#x1ef2;" horiz-adv-x="709" 
d="M338 744l-152 136l166 28l112 -164h-126zM258 0v226l-264 461h222l139 -279l147 279h213l-263 -461v-226h-194z" />
    <glyph glyph-name="Z" unicode="Z" horiz-adv-x="675" 
d="M41 0l-1 145l326 369h-318v173h584v-145l-324 -369h329v-173h-596z" />
    <glyph glyph-name="Zacute" unicode="&#x179;" horiz-adv-x="675" 
d="M224 744l112 164l166 -28l-152 -136h-126zM41 0l-1 145l326 369h-318v173h584v-145l-324 -369h329v-173h-596z" />
    <glyph glyph-name="Zcaron" unicode="&#x17d;" horiz-adv-x="675" 
d="M266 744l-108 154h112l73 -67l74 67h113l-109 -154h-155zM41 0l-1 145l326 369h-318v173h584v-145l-324 -369h329v-173h-596z" />
    <glyph glyph-name="Zdotaccent" unicode="&#x17b;" horiz-adv-x="675" 
d="M343 745c-50 0 -87 39 -87 87c0 46 37 86 87 86c47 0 86 -40 86 -86c0 -48 -39 -87 -86 -87zM41 0l-1 145l326 369h-318v173h584v-145l-324 -369h329v-173h-596z" />
    <glyph glyph-name="a" unicode="a" horiz-adv-x="587" 
d="M301 529c131 0 239 -83 239 -224v-305h-185v37c-35 -32 -84 -49 -133 -49c-111 0 -199 68 -199 165c0 101 98 172 223 172c34 0 72 -8 109 -23v3c0 51 -46 81 -106 81c-49 0 -82 -13 -125 -35l-59 117c72 36 149 61 236 61zM269 102c46 0 82 21 86 51v49
c-18 9 -52 16 -82 16c-39 0 -67 -25 -67 -60c0 -33 26 -56 63 -56z" />
    <glyph glyph-name="aacute" unicode="&#xe1;" horiz-adv-x="587" 
d="M464 710l-152 -136h-126l112 164zM301 529c131 0 239 -83 239 -224v-305h-185v37c-35 -32 -84 -49 -133 -49c-111 0 -199 68 -199 165c0 101 98 172 223 172c34 0 72 -8 109 -23v3c0 51 -46 81 -106 81c-49 0 -82 -13 -125 -35l-59 117c72 36 149 61 236 61zM269 102
c46 0 82 21 86 51v49c-18 9 -52 16 -82 16c-39 0 -67 -25 -67 -60c0 -33 26 -56 63 -56z" />
    <glyph glyph-name="abreve" unicode="&#x103;" horiz-adv-x="587" 
d="M476 646c-47 -47 -109 -71 -171 -71s-123 24 -171 71l74 74c27 -27 63 -43 97 -43s70 16 97 43zM301 529c131 0 239 -83 239 -224v-305h-185v37c-35 -32 -84 -49 -133 -49c-111 0 -199 68 -199 165c0 101 98 172 223 172c34 0 72 -8 109 -23v3c0 51 -46 81 -106 81
c-49 0 -82 -13 -125 -35l-59 117c72 36 149 61 236 61zM269 102c46 0 82 21 86 51v49c-18 9 -52 16 -82 16c-39 0 -67 -25 -67 -60c0 -33 26 -56 63 -56z" />
    <glyph glyph-name="acircumflex" unicode="&#xe2;" horiz-adv-x="587" 
d="M305 641l-73 -67h-112l108 154h155l109 -154h-113zM301 529c131 0 239 -83 239 -224v-305h-185v37c-35 -32 -84 -49 -133 -49c-111 0 -199 68 -199 165c0 101 98 172 223 172c34 0 72 -8 109 -23v3c0 51 -46 81 -106 81c-49 0 -82 -13 -125 -35l-59 117
c72 36 149 61 236 61zM269 102c46 0 82 21 86 51v49c-18 9 -52 16 -82 16c-39 0 -67 -25 -67 -60c0 -33 26 -56 63 -56z" />
    <glyph glyph-name="adieresis" unicode="&#xe4;" horiz-adv-x="587" 
d="M193 575c-50 0 -87 39 -87 87c0 46 37 86 87 86c47 0 86 -40 86 -86c0 -48 -39 -87 -86 -87zM418 575c-49 0 -87 39 -87 87c0 46 38 86 87 86c48 0 86 -40 86 -86c0 -48 -38 -87 -86 -87zM301 529c131 0 239 -83 239 -224v-305h-185v37c-35 -32 -84 -49 -133 -49
c-111 0 -199 68 -199 165c0 101 98 172 223 172c34 0 72 -8 109 -23v3c0 51 -46 81 -106 81c-49 0 -82 -13 -125 -35l-59 117c72 36 149 61 236 61zM269 102c46 0 82 21 86 51v49c-18 9 -52 16 -82 16c-39 0 -67 -25 -67 -60c0 -33 26 -56 63 -56z" />
    <glyph glyph-name="agrave" unicode="&#xe0;" horiz-adv-x="587" 
d="M414 574h-126l-152 136l166 28zM301 529c131 0 239 -83 239 -224v-305h-185v37c-35 -32 -84 -49 -133 -49c-111 0 -199 68 -199 165c0 101 98 172 223 172c34 0 72 -8 109 -23v3c0 51 -46 81 -106 81c-49 0 -82 -13 -125 -35l-59 117c72 36 149 61 236 61zM269 102
c46 0 82 21 86 51v49c-18 9 -52 16 -82 16c-39 0 -67 -25 -67 -60c0 -33 26 -56 63 -56z" />
    <glyph glyph-name="amacron" unicode="&#x101;" horiz-adv-x="587" 
d="M489 679v-106h-369v106h369zM301 529c131 0 239 -83 239 -224v-305h-185v37c-35 -32 -84 -49 -133 -49c-111 0 -199 68 -199 165c0 101 98 172 223 172c34 0 72 -8 109 -23v3c0 51 -46 81 -106 81c-49 0 -82 -13 -125 -35l-59 117c72 36 149 61 236 61zM269 102
c46 0 82 21 86 51v49c-18 9 -52 16 -82 16c-39 0 -67 -25 -67 -60c0 -33 26 -56 63 -56z" />
    <glyph glyph-name="aogonek" unicode="&#x105;" horiz-adv-x="587" 
d="M571 -56l22 -82c-22 -20 -54 -35 -93 -35c-66 0 -112 44 -112 114c0 23 5 42 15 59h-48v37c-35 -32 -84 -49 -133 -49c-111 0 -199 68 -199 165c0 101 98 172 223 172c34 0 72 -8 109 -23v3c0 51 -46 81 -106 81c-49 0 -82 -13 -125 -35l-59 117c72 36 149 61 236 61
c131 0 239 -83 239 -224v-305c-23 0 -38 -15 -38 -36s16 -30 39 -30c11 0 23 4 30 10zM269 102c46 0 82 21 86 51v49c-18 9 -52 16 -82 16c-39 0 -67 -25 -67 -60c0 -33 26 -56 63 -56z" />
    <glyph glyph-name="aring" unicode="&#xe5;" horiz-adv-x="587" 
d="M305 575c-66 0 -121 54 -121 121s55 121 121 121c67 0 121 -54 121 -121s-54 -121 -121 -121zM305 745c-27 0 -49 -22 -49 -49s22 -49 49 -49s49 22 49 49s-22 49 -49 49zM301 529c131 0 239 -83 239 -224v-305h-185v37c-35 -32 -84 -49 -133 -49
c-111 0 -199 68 -199 165c0 101 98 172 223 172c34 0 72 -8 109 -23v3c0 51 -46 81 -106 81c-49 0 -82 -13 -125 -35l-59 117c72 36 149 61 236 61zM269 102c46 0 82 21 86 51v49c-18 9 -52 16 -82 16c-39 0 -67 -25 -67 -60c0 -33 26 -56 63 -56z" />
    <glyph glyph-name="atilde" unicode="&#xe3;" horiz-adv-x="587" 
d="M241 612c-20 0 -31 -13 -37 -42l-90 13c11 95 48 141 121 141c54 0 107 -41 133 -41c20 0 31 14 37 42l90 -13c-10 -95 -48 -141 -121 -141c-55 0 -106 41 -133 41zM301 529c131 0 239 -83 239 -224v-305h-185v37c-35 -32 -84 -49 -133 -49c-111 0 -199 68 -199 165
c0 101 98 172 223 172c34 0 72 -8 109 -23v3c0 51 -46 81 -106 81c-49 0 -82 -13 -125 -35l-59 117c72 36 149 61 236 61zM269 102c46 0 82 21 86 51v49c-18 9 -52 16 -82 16c-39 0 -67 -25 -67 -60c0 -33 26 -56 63 -56z" />
    <glyph glyph-name="ae" unicode="&#xe6;" horiz-adv-x="918" 
d="M628 132c39 0 81 16 115 43l106 -107c-46 -47 -134 -80 -213 -80c-77 0 -144 25 -193 68c-40 -44 -106 -68 -191 -68c-134 0 -229 68 -229 165c0 101 98 172 223 172c34 0 72 -8 109 -23v3c0 45 -39 71 -106 71c-45 0 -85 -10 -123 -29l-61 121c72 36 129 61 216 61
c68 0 126 -24 163 -64c47 41 111 64 184 64c166 0 264 -117 264 -316h-366c15 -49 53 -81 102 -81zM628 385c-46 0 -82 -28 -99 -71h188c-14 43 -47 71 -89 71zM269 112c54 0 86 19 86 51v26c-23 12 -52 19 -82 19c-37 0 -63 -21 -63 -50c0 -27 24 -46 59 -46z" />
    <glyph glyph-name="b" unicode="b" 
d="M409 529c139 0 237 -112 237 -270c0 -159 -98 -271 -237 -271c-67 0 -124 27 -165 73v-61h-193v699h193v-243c41 46 98 73 165 73zM348 148c67 0 114 46 114 111c0 64 -47 110 -114 110c-61 0 -104 -46 -104 -110c0 -65 43 -111 104 -111z" />
    <glyph glyph-name="c" unicode="c" horiz-adv-x="552" 
d="M317 -12c-157 0 -290 124 -290 271s134 270 293 270c92 0 165 -38 215 -96l-127 -104c-20 23 -57 40 -90 40c-58 0 -107 -50 -107 -109c0 -61 49 -112 108 -112c33 0 71 17 92 41l127 -102c-52 -60 -125 -99 -221 -99z" />
    <glyph glyph-name="cacute" unicode="&#x107;" horiz-adv-x="552" 
d="M179 574l112 164l166 -28l-152 -136h-126zM317 -12c-157 0 -290 124 -290 271s134 270 293 270c92 0 165 -38 215 -96l-127 -104c-20 23 -57 40 -90 40c-58 0 -107 -50 -107 -109c0 -61 49 -112 108 -112c33 0 71 17 92 41l127 -102c-52 -60 -125 -99 -221 -99z" />
    <glyph glyph-name="ccaron" unicode="&#x10d;" horiz-adv-x="552" 
d="M221 574l-108 154h112l73 -67l74 67h113l-109 -154h-155zM317 -12c-157 0 -290 124 -290 271s134 270 293 270c92 0 165 -38 215 -96l-127 -104c-20 23 -57 40 -90 40c-58 0 -107 -50 -107 -109c0 -61 49 -112 108 -112c33 0 71 17 92 41l127 -102
c-52 -60 -125 -99 -221 -99z" />
    <glyph glyph-name="ccedilla" unicode="&#xe7;" horiz-adv-x="552" 
d="M538 87c-45 -52 -105 -88 -182 -97l-14 -32c44 -2 73 -31 73 -69c0 -56 -48 -89 -115 -89c-38 0 -76 13 -99 30l31 68c17 -14 38 -23 58 -23c19 0 36 9 36 25c0 14 -11 22 -28 22c-9 0 -19 -3 -27 -8l-26 24l23 54c-135 23 -241 136 -241 267c0 147 134 270 293 270
c92 0 165 -38 215 -96l-127 -104c-20 23 -57 40 -90 40c-58 0 -107 -50 -107 -109c0 -61 49 -112 108 -112c33 0 71 17 92 41z" />
    <glyph glyph-name="d" unicode="d" 
d="M430 699h193v-699h-193v61c-41 -46 -98 -73 -165 -73c-139 0 -237 112 -237 271c0 158 98 270 237 270c67 0 124 -27 165 -73v243zM326 148c61 0 104 46 104 111c0 64 -43 110 -104 110c-67 0 -114 -46 -114 -110c0 -65 47 -111 114 -111z" />
    <glyph glyph-name="eth" unicode="&#xf0;" horiz-adv-x="635" 
d="M436 619c114 -107 168 -202 168 -331c0 -176 -118 -300 -285 -300c-166 0 -284 109 -284 263c0 141 91 241 220 241c63 0 107 -26 143 -67c-23 46 -62 88 -111 128l-93 -42l-39 88l43 19c-21 14 -43 28 -65 42l168 72c19 -15 38 -29 55 -43l84 37l39 -88zM320 149
c59 0 100 39 100 94c0 54 -40 95 -101 95c-59 0 -100 -39 -100 -94c0 -56 42 -95 101 -95z" />
    <glyph glyph-name="dcaron" unicode="&#x10f;" 
d="M430 456v243h193v-699h-193v61c-41 -46 -98 -73 -165 -73c-139 0 -237 112 -237 271c0 158 98 270 237 270c67 0 124 -27 165 -73zM767 699c51 0 87 -48 87 -114c0 -55 -34 -115 -93 -164l-46 36c25 20 43 46 49 70c-44 0 -81 39 -81 85c0 48 38 87 84 87zM326 148
c61 0 104 46 104 111c0 64 -43 110 -104 110c-67 0 -114 -46 -114 -110c0 -65 47 -111 114 -111z" />
    <glyph glyph-name="dcroat" unicode="&#x111;" horiz-adv-x="705" 
d="M680 655v-90h-57v-565h-193v61c-41 -46 -98 -73 -165 -73c-139 0 -237 112 -237 271c0 158 98 270 237 270c67 0 124 -27 165 -73v109h-140v90h140v44h193v-44h57zM326 148c61 0 104 46 104 111c0 64 -43 110 -104 110c-67 0 -114 -46 -114 -110c0 -65 47 -111 114 -111z
" />
    <glyph glyph-name="e" unicode="e" horiz-adv-x="590" 
d="M300 132c39 0 81 16 115 43l106 -107c-46 -47 -134 -80 -213 -80c-165 0 -281 113 -281 272c0 158 113 269 273 269c166 0 264 -117 264 -316h-366c15 -49 53 -81 102 -81zM300 385c-46 0 -82 -28 -99 -71h188c-14 43 -47 71 -89 71z" />
    <glyph glyph-name="eacute" unicode="&#xe9;" horiz-adv-x="590" 
d="M459 710l-152 -136h-126l112 164zM300 132c39 0 81 16 115 43l106 -107c-46 -47 -134 -80 -213 -80c-165 0 -281 113 -281 272c0 158 113 269 273 269c166 0 264 -117 264 -316h-366c15 -49 53 -81 102 -81zM300 385c-46 0 -82 -28 -99 -71h188c-14 43 -47 71 -89 71z
" />
    <glyph glyph-name="ecaron" unicode="&#x11b;" horiz-adv-x="590" 
d="M378 574h-155l-108 154h112l73 -67l74 67h113zM300 132c39 0 81 16 115 43l106 -107c-46 -47 -134 -80 -213 -80c-165 0 -281 113 -281 272c0 158 113 269 273 269c166 0 264 -117 264 -316h-366c15 -49 53 -81 102 -81zM300 385c-46 0 -82 -28 -99 -71h188
c-14 43 -47 71 -89 71z" />
    <glyph glyph-name="ecircumflex" unicode="&#xea;" horiz-adv-x="590" 
d="M300 641l-73 -67h-112l108 154h155l109 -154h-113zM300 132c39 0 81 16 115 43l106 -107c-46 -47 -134 -80 -213 -80c-165 0 -281 113 -281 272c0 158 113 269 273 269c166 0 264 -117 264 -316h-366c15 -49 53 -81 102 -81zM300 385c-46 0 -82 -28 -99 -71h188
c-14 43 -47 71 -89 71z" />
    <glyph glyph-name="edieresis" unicode="&#xeb;" horiz-adv-x="590" 
d="M188 575c-50 0 -87 39 -87 87c0 46 37 86 87 86c47 0 86 -40 86 -86c0 -48 -39 -87 -86 -87zM413 575c-49 0 -87 39 -87 87c0 46 38 86 87 86c48 0 86 -40 86 -86c0 -48 -38 -87 -86 -87zM300 132c39 0 81 16 115 43l106 -107c-46 -47 -134 -80 -213 -80
c-165 0 -281 113 -281 272c0 158 113 269 273 269c166 0 264 -117 264 -316h-366c15 -49 53 -81 102 -81zM300 385c-46 0 -82 -28 -99 -71h188c-14 43 -47 71 -89 71z" />
    <glyph glyph-name="edotaccent" unicode="&#x117;" horiz-adv-x="590" 
d="M300 575c-50 0 -87 39 -87 87c0 46 37 86 87 86c47 0 86 -40 86 -86c0 -48 -39 -87 -86 -87zM300 132c39 0 81 16 115 43l106 -107c-46 -47 -134 -80 -213 -80c-165 0 -281 113 -281 272c0 158 113 269 273 269c166 0 264 -117 264 -316h-366c15 -49 53 -81 102 -81z
M300 385c-46 0 -82 -28 -99 -71h188c-14 43 -47 71 -89 71z" />
    <glyph glyph-name="uni1EB9" unicode="&#x1eb9;" horiz-adv-x="590" 
d="M300 132c39 0 81 16 115 43l106 -107c-46 -47 -134 -80 -213 -80c-165 0 -281 113 -281 272c0 158 113 269 273 269c166 0 264 -117 264 -316h-366c15 -49 53 -81 102 -81zM300 385c-46 0 -82 -28 -99 -71h188c-14 43 -47 71 -89 71zM296 -64c47 0 86 -40 86 -86
c0 -48 -39 -87 -86 -87c-50 0 -87 39 -87 87c0 46 37 86 87 86z" />
    <glyph glyph-name="egrave" unicode="&#xe8;" horiz-adv-x="590" 
d="M409 574h-126l-152 136l166 28zM300 132c39 0 81 16 115 43l106 -107c-46 -47 -134 -80 -213 -80c-165 0 -281 113 -281 272c0 158 113 269 273 269c166 0 264 -117 264 -316h-366c15 -49 53 -81 102 -81zM300 385c-46 0 -82 -28 -99 -71h188c-14 43 -47 71 -89 71z" />
    <glyph glyph-name="emacron" unicode="&#x113;" horiz-adv-x="590" 
d="M484 679v-106h-369v106h369zM300 132c39 0 81 16 115 43l106 -107c-46 -47 -134 -80 -213 -80c-165 0 -281 113 -281 272c0 158 113 269 273 269c166 0 264 -117 264 -316h-366c15 -49 53 -81 102 -81zM300 385c-46 0 -82 -28 -99 -71h188c-14 43 -47 71 -89 71z" />
    <glyph glyph-name="eogonek" unicode="&#x119;" horiz-adv-x="590" 
d="M521 68c-14 -15 -32 -28 -53 -39c-10 -5 -21 -10 -32 -15c-4 -6 -6 -13 -6 -21c0 -21 16 -30 39 -30c11 0 23 4 30 10l22 -82c-22 -20 -54 -35 -93 -35c-66 0 -112 44 -112 114c0 6 0 12 1 18h-9c-165 0 -281 113 -281 272c0 158 113 269 273 269
c166 0 264 -117 264 -316h-366c15 -49 53 -81 102 -81c39 0 81 16 115 43zM300 385c-46 0 -82 -28 -99 -71h188c-14 43 -47 71 -89 71z" />
    <glyph glyph-name="uni1EBD" unicode="&#x1ebd;" horiz-adv-x="590" 
d="M236 612c-20 0 -31 -13 -37 -42l-90 13c11 95 48 141 121 141c54 0 107 -41 133 -41c20 0 31 14 37 42l90 -13c-10 -95 -48 -141 -121 -141c-55 0 -106 41 -133 41zM300 132c39 0 81 16 115 43l106 -107c-46 -47 -134 -80 -213 -80c-165 0 -281 113 -281 272
c0 158 113 269 273 269c166 0 264 -117 264 -316h-366c15 -49 53 -81 102 -81zM300 385c-46 0 -82 -28 -99 -71h188c-14 43 -47 71 -89 71z" />
    <glyph glyph-name="f" unicode="f" horiz-adv-x="398" 
d="M311 570c-26 0 -44 -22 -44 -53h102v-152h-102v-365h-184v365h-65v152h65v28c0 103 72 175 175 175c46 0 101 -22 133 -53l-33 -112c-10 9 -29 15 -47 15z" />
    <glyph glyph-name="g" unicode="g" horiz-adv-x="657" 
d="M412 517h194v-462c0 -133 -122 -227 -294 -227c-96 0 -186 29 -241 69l63 133c30 -25 90 -42 147 -42c77 0 131 33 131 77v41c-41 -43 -100 -68 -160 -68c-125 0 -224 102 -224 246s99 245 224 245c62 0 128 -29 160 -69v57zM319 198c54 0 93 36 93 86s-39 85 -93 85
s-93 -35 -93 -85s39 -86 93 -86z" />
    <glyph glyph-name="gbreve" unicode="&#x11f;" horiz-adv-x="657" 
d="M516 646c-47 -47 -109 -71 -171 -71s-123 24 -171 71l74 74c27 -27 63 -43 97 -43s70 16 97 43zM412 517h194v-462c0 -133 -122 -227 -294 -227c-96 0 -186 29 -241 69l63 133c30 -25 90 -42 147 -42c77 0 131 33 131 77v41c-41 -43 -100 -68 -160 -68
c-125 0 -224 102 -224 246s99 245 224 245c62 0 128 -29 160 -69v57zM319 198c54 0 93 36 93 86s-39 85 -93 85s-93 -35 -93 -85s39 -86 93 -86z" />
    <glyph glyph-name="gcommaaccent" unicode="&#x123;" horiz-adv-x="657" 
d="M321 575c-51 0 -87 48 -87 114c0 55 34 115 93 164l46 -36c-25 -20 -43 -46 -49 -70c44 0 81 -39 81 -85c0 -48 -38 -87 -84 -87zM412 517h194v-462c0 -133 -122 -227 -294 -227c-96 0 -186 29 -241 69l63 133c30 -25 90 -42 147 -42c77 0 131 33 131 77v41
c-41 -43 -100 -68 -160 -68c-125 0 -224 102 -224 246s99 245 224 245c62 0 128 -29 160 -69v57zM319 198c54 0 93 36 93 86s-39 85 -93 85s-93 -35 -93 -85s39 -86 93 -86z" />
    <glyph glyph-name="h" unicode="h" horiz-adv-x="628" 
d="M390 529c111 0 190 -83 190 -200v-329h-184v284c0 50 -32 85 -78 85c-43 0 -74 -33 -74 -79v-290h-193v699h193v-234c32 40 84 64 146 64z" />
    <glyph glyph-name="i" unicode="i" horiz-adv-x="304" 
d="M153 572c-56 0 -100 46 -100 100c0 52 44 98 100 98c54 0 98 -46 98 -98c0 -54 -44 -100 -98 -100zM55 0v517h193v-517h-193z" />
    <glyph glyph-name="dotlessi" unicode="&#x131;" horiz-adv-x="304" 
d="M55 0v517h193v-517h-193z" />
    <glyph glyph-name="iacute" unicode="&#xed;" horiz-adv-x="304" 
d="M87 574l112 164l166 -28l-152 -136h-126zM55 0v517h193v-517h-193z" />
    <glyph glyph-name="icircumflex" unicode="&#xee;" horiz-adv-x="304" 
d="M-33 574l108 154h155l109 -154h-113l-74 67l-73 -67h-112zM55 0v517h193v-517h-193z" />
    <glyph glyph-name="idieresis" unicode="&#xef;" horiz-adv-x="304" 
d="M40 575c-50 0 -87 39 -87 87c0 46 37 86 87 86c47 0 86 -40 86 -86c0 -48 -39 -87 -86 -87zM265 575c-49 0 -87 39 -87 87c0 46 38 86 87 86c48 0 86 -40 86 -86c0 -48 -38 -87 -86 -87zM55 0v517h193v-517h-193z" />
    <glyph glyph-name="igrave" unicode="&#xec;" horiz-adv-x="304" 
d="M89 574l-152 136l166 28l112 -164h-126zM55 0v517h193v-517h-193z" />
    <glyph glyph-name="imacron" unicode="&#x12b;" horiz-adv-x="304" 
d="M-33 573v106h369v-106h-369zM55 0v517h193v-517h-193z" />
    <glyph glyph-name="iogonek" unicode="&#x12f;" horiz-adv-x="304" 
d="M152 575c-50 0 -87 39 -87 87c0 46 37 86 87 86c47 0 86 -40 86 -86c0 -48 -39 -87 -86 -87zM152 0c-23 0 -38 -15 -38 -36s16 -30 39 -30c11 0 23 4 30 10l22 -82c-22 -20 -54 -35 -93 -35c-66 0 -112 44 -112 114c0 43 18 74 51 97l4 -2v481h193v-517h-96z" />
    <glyph glyph-name="j" unicode="j" horiz-adv-x="304" 
d="M153 572c-56 0 -100 46 -100 100c0 52 44 98 100 98c54 0 98 -46 98 -98c0 -54 -44 -100 -98 -100zM64 -178c-41 0 -90 10 -118 24l18 139c12 -5 31 -8 47 -8c26 0 44 22 44 53v487h193v-511c0 -108 -76 -184 -184 -184z" />
    <glyph glyph-name="uni0237" unicode="&#x237;" horiz-adv-x="304" 
d="M64 -178c-41 0 -90 10 -118 24l18 139c12 -5 31 -8 47 -8c26 0 44 22 44 53v487h193v-511c0 -108 -76 -184 -184 -184z" />
    <glyph glyph-name="k" unicode="k" horiz-adv-x="590" 
d="M412 294l185 -294h-216l-95 171l-42 -52v-119h-193v699h193v-364l133 182h216z" />
    <glyph glyph-name="kcommaaccent" unicode="&#x137;" horiz-adv-x="590" 
d="M244 119v-119h-193v699h193v-364l133 182h216l-181 -223l185 -294h-216l-95 171zM311 -23c51 0 87 -48 87 -114c0 -55 -34 -115 -93 -164l-46 36c25 20 43 46 49 70c-44 0 -81 39 -81 85c0 48 38 87 84 87z" />
    <glyph glyph-name="l" unicode="l" horiz-adv-x="303" 
d="M55 0v699h193v-699h-193z" />
    <glyph glyph-name="lacute" unicode="&#x13a;" horiz-adv-x="303" 
d="M85 756l112 164l166 -28l-152 -136h-126zM55 0v699h193v-699h-193z" />
    <glyph glyph-name="lcaron" unicode="&#x13e;" horiz-adv-x="303" 
d="M55 0v699h193v-699h-193zM386 421l-46 36c25 20 43 46 49 70c-44 0 -81 39 -81 85c0 48 38 87 84 87c51 0 87 -48 87 -114c0 -55 -34 -115 -93 -164z" />
    <glyph glyph-name="lslash" unicode="&#x142;" horiz-adv-x="384" 
d="M366 517v-167l-78 -39v-311h-193v216l-77 -38v167l77 38v316h193v-221z" />
    <glyph glyph-name="m" unicode="m" horiz-adv-x="952" 
d="M708 529c108 0 196 -83 196 -200v-330h-184v295c0 44 -30 75 -73 75s-73 -29 -73 -69v-301h-184v295c0 44 -30 75 -73 75s-73 -29 -73 -69v-300h-193v517h193v-63c25 46 73 75 134 75c67 0 127 -32 162 -85c30 52 92 85 168 85z" />
    <glyph glyph-name="n" unicode="n" horiz-adv-x="628" 
d="M390 529c111 0 190 -83 190 -200v-329h-184v284c0 50 -32 85 -78 85c-43 0 -74 -33 -74 -79v-290h-193v517h193v-52c32 40 84 64 146 64z" />
    <glyph glyph-name="nacute" unicode="&#x144;" horiz-adv-x="628" 
d="M482 710l-152 -136h-126l112 164zM390 529c111 0 190 -83 190 -200v-329h-184v284c0 50 -32 85 -78 85c-43 0 -74 -33 -74 -79v-290h-193v517h193v-52c32 40 84 64 146 64z" />
    <glyph glyph-name="ncaron" unicode="&#x148;" horiz-adv-x="628" 
d="M401 574h-155l-108 154h112l73 -67l74 67h113zM390 529c111 0 190 -83 190 -200v-329h-184v284c0 50 -32 85 -78 85c-43 0 -74 -33 -74 -79v-290h-193v517h193v-52c32 40 84 64 146 64z" />
    <glyph glyph-name="ncommaaccent" unicode="&#x146;" horiz-adv-x="628" 
d="M390 529c111 0 190 -83 190 -200v-329h-184v284c0 50 -32 85 -78 85c-43 0 -74 -33 -74 -79v-290h-193v517h193v-52c32 40 84 64 146 64zM323 -23c51 0 87 -48 87 -114c0 -55 -34 -115 -93 -164l-46 36c25 20 43 46 49 70c-44 0 -81 39 -81 85c0 48 38 87 84 87z" />
    <glyph glyph-name="ntilde" unicode="&#xf1;" horiz-adv-x="628" 
d="M259 612c-20 0 -31 -13 -37 -42l-90 13c11 95 48 141 121 141c54 0 107 -41 133 -41c20 0 31 14 37 42l90 -13c-10 -95 -48 -141 -121 -141c-55 0 -106 41 -133 41zM390 529c111 0 190 -83 190 -200v-329h-184v284c0 50 -32 85 -78 85c-43 0 -74 -33 -74 -79v-290h-193
v517h193v-52c32 40 84 64 146 64z" />
    <glyph glyph-name="o" unicode="o" horiz-adv-x="636" 
d="M319 -12c-159 0 -292 124 -292 271s133 270 292 270c158 0 291 -123 291 -270s-133 -271 -291 -271zM319 148c60 0 111 51 111 111s-51 110 -111 110c-61 0 -112 -50 -112 -110s51 -111 112 -111z" />
    <glyph glyph-name="oacute" unicode="&#xf3;" horiz-adv-x="636" 
d="M200 574l112 164l166 -28l-152 -136h-126zM319 -12c-159 0 -292 124 -292 271s133 270 292 270c158 0 291 -123 291 -270s-133 -271 -291 -271zM319 148c60 0 111 51 111 111s-51 110 -111 110c-61 0 -112 -50 -112 -110s51 -111 112 -111z" />
    <glyph glyph-name="ocircumflex" unicode="&#xf4;" horiz-adv-x="636" 
d="M134 574l108 154h155l109 -154h-113l-74 67l-73 -67h-112zM319 -12c-159 0 -292 124 -292 271s133 270 292 270c158 0 291 -123 291 -270s-133 -271 -291 -271zM319 148c60 0 111 51 111 111s-51 110 -111 110c-61 0 -112 -50 -112 -110s51 -111 112 -111z" />
    <glyph glyph-name="odieresis" unicode="&#xf6;" horiz-adv-x="636" 
d="M207 575c-50 0 -87 39 -87 87c0 46 37 86 87 86c47 0 86 -40 86 -86c0 -48 -39 -87 -86 -87zM432 575c-49 0 -87 39 -87 87c0 46 38 86 87 86c48 0 86 -40 86 -86c0 -48 -38 -87 -86 -87zM319 -12c-159 0 -292 124 -292 271s133 270 292 270c158 0 291 -123 291 -270
s-133 -271 -291 -271zM319 148c60 0 111 51 111 111s-51 110 -111 110c-61 0 -112 -50 -112 -110s51 -111 112 -111z" />
    <glyph glyph-name="ograve" unicode="&#xf2;" horiz-adv-x="636" 
d="M302 574l-152 136l166 28l112 -164h-126zM319 -12c-159 0 -292 124 -292 271s133 270 292 270c158 0 291 -123 291 -270s-133 -271 -291 -271zM319 148c60 0 111 51 111 111s-51 110 -111 110c-61 0 -112 -50 -112 -110s51 -111 112 -111z" />
    <glyph glyph-name="ohungarumlaut" unicode="&#x151;" horiz-adv-x="636" 
d="M120 574l112 164l166 -28l-152 -136h-126zM378 574l112 164l166 -28l-152 -136h-126zM319 -12c-159 0 -292 124 -292 271s133 270 292 270c158 0 291 -123 291 -270s-133 -271 -291 -271zM319 148c60 0 111 51 111 111s-51 110 -111 110c-61 0 -112 -50 -112 -110
s51 -111 112 -111z" />
    <glyph glyph-name="omacron" unicode="&#x14d;" horiz-adv-x="636" 
d="M134 573v106h369v-106h-369zM319 -12c-159 0 -292 124 -292 271s133 270 292 270c158 0 291 -123 291 -270s-133 -271 -291 -271zM319 148c60 0 111 51 111 111s-51 110 -111 110c-61 0 -112 -50 -112 -110s51 -111 112 -111z" />
    <glyph glyph-name="oslash" unicode="&#xf8;" horiz-adv-x="636" 
d="M535 438c46 -48 75 -111 75 -179c0 -147 -133 -271 -291 -271c-52 0 -101 13 -144 36l-21 -24h-120l69 79c-47 48 -76 112 -76 180c0 147 133 270 292 270c52 0 101 -13 144 -36l21 24h120zM207 259c0 -17 4 -33 11 -47l133 152c-10 3 -21 5 -32 5
c-61 0 -112 -50 -112 -110zM319 148c60 0 111 51 111 111c0 16 -4 32 -11 46l-132 -152c10 -3 21 -5 32 -5z" />
    <glyph glyph-name="otilde" unicode="&#xf5;" horiz-adv-x="636" 
d="M388 571c-55 0 -106 41 -133 41c-20 0 -31 -13 -37 -42l-90 13c11 95 48 141 121 141c54 0 107 -41 133 -41c20 0 31 14 37 42l90 -13c-10 -95 -48 -141 -121 -141zM319 -12c-159 0 -292 124 -292 271s133 270 292 270c158 0 291 -123 291 -270s-133 -271 -291 -271z
M319 148c60 0 111 51 111 111s-51 110 -111 110c-61 0 -112 -50 -112 -110s51 -111 112 -111z" />
    <glyph glyph-name="oe" unicode="&#x153;" horiz-adv-x="998" 
d="M708 132c39 0 81 16 115 43l106 -107c-46 -47 -134 -80 -213 -80c-81 0 -150 27 -200 74c-52 -46 -122 -74 -197 -74c-159 0 -292 124 -292 271s133 270 292 270c75 0 144 -27 196 -72c48 46 115 72 193 72c166 0 264 -117 264 -316h-366c15 -49 53 -81 102 -81zM708 385
c-46 0 -82 -28 -99 -71h188c-14 43 -47 71 -89 71zM319 148c60 0 111 51 111 111s-51 110 -111 110c-61 0 -112 -50 -112 -110s51 -111 112 -111z" />
    <glyph glyph-name="p" unicode="p" 
d="M409 529c139 0 237 -112 237 -270c0 -159 -98 -271 -237 -271c-67 0 -124 27 -165 73v-233h-193v689h193v-61c41 46 98 73 165 73zM348 148c67 0 114 46 114 111c0 64 -47 110 -114 110c-61 0 -104 -46 -104 -110c0 -65 43 -111 104 -111z" />
    <glyph glyph-name="thorn" unicode="&#xfe;" 
d="M409 529c139 0 237 -112 237 -270c0 -159 -98 -271 -237 -271c-67 0 -124 27 -165 73v-233h-193v871h193v-243c41 46 98 73 165 73zM348 148c67 0 114 46 114 111c0 64 -47 110 -114 110c-61 0 -104 -46 -104 -110c0 -65 43 -111 104 -111z" />
    <glyph glyph-name="q" unicode="q" 
d="M430 517h193v-689h-193v233c-41 -46 -98 -73 -165 -73c-139 0 -237 112 -237 271c0 158 98 270 237 270c67 0 124 -27 165 -73v61zM326 148c61 0 104 46 104 111c0 64 -43 110 -104 110c-67 0 -114 -46 -114 -110c0 -65 47 -111 114 -111z" />
    <glyph glyph-name="r" unicode="r" horiz-adv-x="421" 
d="M244 425c34 64 92 104 162 104v-160c-102 0 -162 -56 -162 -150v-219h-193v517h193v-92z" />
    <glyph glyph-name="racute" unicode="&#x155;" horiz-adv-x="421" 
d="M387 710l-152 -136h-126l112 164zM244 425c34 64 92 104 162 104v-160c-102 0 -162 -56 -162 -150v-219h-193v517h193v-92z" />
    <glyph glyph-name="rcaron" unicode="&#x159;" horiz-adv-x="421" 
d="M306 574h-155l-108 154h112l73 -67l74 67h113zM244 425c34 64 92 104 162 104v-160c-102 0 -162 -56 -162 -150v-219h-193v517h193v-92z" />
    <glyph glyph-name="rcommaaccent" unicode="&#x157;" horiz-adv-x="421" 
d="M244 425c34 64 92 104 162 104v-160c-102 0 -162 -56 -162 -150v-219h-193v517h193v-92zM208 -23c51 0 87 -48 87 -114c0 -55 -34 -115 -93 -164l-46 36c25 20 43 46 49 70c-44 0 -81 39 -81 85c0 48 38 87 84 87z" />
    <glyph glyph-name="s" unicode="s" horiz-adv-x="506" 
d="M257 -12c-90 0 -183 29 -246 78l72 117c50 -35 124 -61 179 -61c36 0 49 9 49 26c0 18 -30 28 -78 38c-94 20 -199 43 -199 165c0 100 81 178 216 178c80 0 157 -29 216 -68l-65 -118c-43 28 -102 55 -151 55c-27 0 -45 -14 -45 -29c0 -17 23 -20 75 -32
c94 -21 202 -52 202 -174c0 -107 -85 -175 -225 -175z" />
    <glyph glyph-name="sacute" unicode="&#x15b;" horiz-adv-x="506" 
d="M131 574l112 164l166 -28l-152 -136h-126zM257 -12c-90 0 -183 29 -246 78l72 117c50 -35 124 -61 179 -61c36 0 49 9 49 26c0 18 -30 28 -78 38c-94 20 -199 43 -199 165c0 100 81 178 216 178c80 0 157 -29 216 -68l-65 -118c-43 28 -102 55 -151 55
c-27 0 -45 -14 -45 -29c0 -17 23 -20 75 -32c94 -21 202 -52 202 -174c0 -107 -85 -175 -225 -175z" />
    <glyph glyph-name="scaron" unicode="&#x161;" horiz-adv-x="506" 
d="M173 574l-108 154h112l73 -67l74 67h113l-109 -154h-155zM257 -12c-90 0 -183 29 -246 78l72 117c50 -35 124 -61 179 -61c36 0 49 9 49 26c0 18 -30 28 -78 38c-94 20 -199 43 -199 165c0 100 81 178 216 178c80 0 157 -29 216 -68l-65 -118c-43 28 -102 55 -151 55
c-27 0 -45 -14 -45 -29c0 -17 23 -20 75 -32c94 -21 202 -52 202 -174c0 -107 -85 -175 -225 -175z" />
    <glyph glyph-name="scedilla" unicode="&#x15f;" horiz-adv-x="506" 
d="M482 163c0 -96 -68 -160 -183 -173l-14 -32c44 -2 73 -31 73 -69c0 -56 -48 -89 -115 -89c-38 0 -76 13 -99 30l31 68c17 -14 38 -23 58 -23c19 0 36 9 36 25c0 14 -11 22 -28 22c-9 0 -19 -3 -27 -8l-26 24l22 53c-74 8 -147 34 -199 75l72 117c50 -35 124 -61 179 -61
c36 0 49 9 49 26c0 18 -30 28 -78 38c-94 20 -199 43 -199 165c0 100 81 178 216 178c80 0 157 -29 216 -68l-65 -118c-43 28 -102 55 -151 55c-27 0 -45 -14 -45 -29c0 -17 23 -20 75 -32c94 -21 202 -52 202 -174z" />
    <glyph glyph-name="germandbls" unicode="&#xdf;" horiz-adv-x="638" 
d="M51 0v514c0 123 110 210 266 210s266 -87 266 -210c0 -67 -35 -125 -95 -154c80 -34 127 -99 127 -175c0 -110 -100 -185 -240 -185h-62v163h30c42 0 72 23 72 55s-30 55 -72 55h-30v147h1c40 0 69 22 69 52s-26 52 -69 52c-40 0 -70 -22 -70 -61v-463h-193z" />
    <glyph glyph-name="t" unicode="t" horiz-adv-x="416" 
d="M358 163l33 -122c-32 -31 -87 -53 -133 -53c-103 0 -175 72 -175 175v202h-65v152h65v142h184v-142h102v-152h-102v-164c0 -31 18 -53 44 -53c18 0 37 6 47 15z" />
    <glyph glyph-name="tcaron" unicode="&#x165;" horiz-adv-x="416" 
d="M512 699c51 0 87 -48 87 -114c0 -55 -34 -115 -93 -164l-46 36c25 20 43 46 49 70c-44 0 -81 39 -81 85c0 48 38 87 84 87zM311 148c18 0 37 6 47 15l33 -122c-32 -31 -87 -53 -133 -53c-103 0 -175 72 -175 175v202h-65v152h65v142h184v-142h102v-152h-102v-164
c0 -31 18 -53 44 -53z" />
    <glyph glyph-name="uni0163" unicode="&#x163;" horiz-adv-x="416" 
d="M294 -42c44 -2 73 -31 73 -69c0 -56 -48 -89 -115 -89c-38 0 -76 13 -99 30l31 68c17 -14 38 -23 58 -23c19 0 36 9 36 25c0 14 -11 22 -28 22c-9 0 -19 -3 -27 -8l-26 24l23 54c-82 15 -137 81 -137 171v202h-65v152h65v142h184v-142h102v-152h-102v-164
c0 -31 18 -53 44 -53c18 0 37 6 47 15l33 -122c-20 -20 -50 -36 -80 -45z" />
    <glyph glyph-name="u" unicode="u" horiz-adv-x="628" 
d="M384 517h193v-517h-193v52c-32 -40 -84 -64 -146 -64c-111 0 -190 83 -190 200v329h184v-284c0 -50 32 -85 78 -85c43 0 74 33 74 79v290z" />
    <glyph glyph-name="uacute" unicode="&#xfa;" horiz-adv-x="628" 
d="M471 710l-152 -136h-126l112 164zM384 517h193v-517h-193v52c-32 -40 -84 -64 -146 -64c-111 0 -190 83 -190 200v329h184v-284c0 -50 32 -85 78 -85c43 0 74 33 74 79v290z" />
    <glyph glyph-name="ucircumflex" unicode="&#xfb;" horiz-adv-x="628" 
d="M312 641l-73 -67h-112l108 154h155l109 -154h-113zM384 517h193v-517h-193v52c-32 -40 -84 -64 -146 -64c-111 0 -190 83 -190 200v329h184v-284c0 -50 32 -85 78 -85c43 0 74 33 74 79v290z" />
    <glyph glyph-name="udieresis" unicode="&#xfc;" horiz-adv-x="628" 
d="M200 575c-50 0 -87 39 -87 87c0 46 37 86 87 86c47 0 86 -40 86 -86c0 -48 -39 -87 -86 -87zM425 575c-49 0 -87 39 -87 87c0 46 38 86 87 86c48 0 86 -40 86 -86c0 -48 -38 -87 -86 -87zM384 517h193v-517h-193v52c-32 -40 -84 -64 -146 -64c-111 0 -190 83 -190 200
v329h184v-284c0 -50 32 -85 78 -85c43 0 74 33 74 79v290z" />
    <glyph glyph-name="ugrave" unicode="&#xf9;" horiz-adv-x="628" 
d="M421 574h-126l-152 136l166 28zM384 517h193v-517h-193v52c-32 -40 -84 -64 -146 -64c-111 0 -190 83 -190 200v329h184v-284c0 -50 32 -85 78 -85c43 0 74 33 74 79v290z" />
    <glyph glyph-name="uhungarumlaut" unicode="&#x171;" horiz-adv-x="628" 
d="M382 710l-152 -136h-126l112 164zM488 574h-126l112 164l166 -28zM384 227v290h193v-517h-193v52c-32 -40 -84 -64 -146 -64c-111 0 -190 83 -190 200v329h184v-284c0 -50 32 -85 78 -85c43 0 74 33 74 79z" />
    <glyph glyph-name="umacron" unicode="&#x16b;" horiz-adv-x="628" 
d="M496 679v-106h-369v106h369zM384 517h193v-517h-193v52c-32 -40 -84 -64 -146 -64c-111 0 -190 83 -190 200v329h184v-284c0 -50 32 -85 78 -85c43 0 74 33 74 79v290z" />
    <glyph glyph-name="uogonek" unicode="&#x173;" horiz-adv-x="628" 
d="M608 -56l22 -82c-22 -20 -54 -35 -93 -35c-66 0 -112 44 -112 114c0 23 5 42 15 59h-56v52c-32 -40 -84 -64 -146 -64c-111 0 -190 83 -190 200v329h184v-284c0 -50 32 -85 78 -85c43 0 74 33 74 79v290h193v-517c-23 0 -38 -15 -38 -36s16 -30 39 -30c11 0 23 4 30 10z
" />
    <glyph glyph-name="uring" unicode="&#x16f;" horiz-adv-x="628" 
d="M312 575c-66 0 -121 54 -121 121s55 121 121 121c67 0 121 -54 121 -121s-54 -121 -121 -121zM312 745c-27 0 -49 -22 -49 -49s22 -49 49 -49s49 22 49 49s-22 49 -49 49zM384 517h193v-517h-193v52c-32 -40 -84 -64 -146 -64c-111 0 -190 83 -190 200v329h184v-284
c0 -50 32 -85 78 -85c43 0 74 33 74 79v290z" />
    <glyph glyph-name="v" unicode="v" horiz-adv-x="635" 
d="M230 0l-226 517h198l117 -296l114 296h198l-223 -517h-178z" />
    <glyph glyph-name="w" unicode="w" horiz-adv-x="847" 
d="M185 0l-178 517h185l77 -258l76 258h158l77 -258l76 258h185l-176 -517h-171l-70 266l-68 -266h-171z" />
    <glyph glyph-name="wacute" unicode="&#x1e83;" horiz-adv-x="847" 
d="M360 574l112 164l166 -28l-152 -136h-126zM185 0l-178 517h185l77 -258l76 258h158l77 -258l76 258h185l-176 -517h-171l-70 266l-68 -266h-171z" />
    <glyph glyph-name="wcircumflex" unicode="&#x175;" horiz-adv-x="847" 
d="M239 574l108 154h155l109 -154h-113l-74 67l-73 -67h-112zM185 0l-178 517h185l77 -258l76 258h158l77 -258l76 258h185l-176 -517h-171l-70 266l-68 -266h-171z" />
    <glyph glyph-name="wdieresis" unicode="&#x1e85;" horiz-adv-x="847" 
d="M312 575c-50 0 -87 39 -87 87c0 46 37 86 87 86c47 0 86 -40 86 -86c0 -48 -39 -87 -86 -87zM537 575c-49 0 -87 39 -87 87c0 46 38 86 87 86c48 0 86 -40 86 -86c0 -48 -38 -87 -86 -87zM185 0l-178 517h185l77 -258l76 258h158l77 -258l76 258h185l-176 -517h-171
l-70 266l-68 -266h-171z" />
    <glyph glyph-name="wgrave" unicode="&#x1e81;" horiz-adv-x="847" 
d="M363 574l-152 136l166 28l112 -164h-126zM185 0l-178 517h185l77 -258l76 258h158l77 -258l76 258h185l-176 -517h-171l-70 266l-68 -266h-171z" />
    <glyph glyph-name="x" unicode="x" horiz-adv-x="576" 
d="M573 0h-204l-83 120l-84 -120h-199l184 264l-175 253h204l74 -107l74 107h199l-174 -250z" />
    <glyph glyph-name="y" unicode="y" horiz-adv-x="607" 
d="M201 -180c-52 0 -119 17 -161 42l39 124c29 -17 59 -29 73 -29c24 0 46 7 52 16l10 20l-209 524h197l106 -319l100 319h194l-195 -521c-42 -111 -118 -176 -206 -176z" />
    <glyph glyph-name="yacute" unicode="&#xfd;" horiz-adv-x="607" 
d="M189 574l112 164l166 -28l-152 -136h-126zM201 -180c-52 0 -119 17 -161 42l39 124c29 -17 59 -29 73 -29c24 0 46 7 52 16l10 20l-209 524h197l106 -319l100 319h194l-195 -521c-42 -111 -118 -176 -206 -176z" />
    <glyph glyph-name="ycircumflex" unicode="&#x177;" horiz-adv-x="607" 
d="M123 574l108 154h155l109 -154h-113l-74 67l-73 -67h-112zM201 -180c-52 0 -119 17 -161 42l39 124c29 -17 59 -29 73 -29c24 0 46 7 52 16l10 20l-209 524h197l106 -319l100 319h194l-195 -521c-42 -111 -118 -176 -206 -176z" />
    <glyph glyph-name="ydieresis" unicode="&#xff;" horiz-adv-x="607" 
d="M196 575c-50 0 -87 39 -87 87c0 46 37 86 87 86c47 0 86 -40 86 -86c0 -48 -39 -87 -86 -87zM421 575c-49 0 -87 39 -87 87c0 46 38 86 87 86c48 0 86 -40 86 -86c0 -48 -38 -87 -86 -87zM201 -180c-52 0 -119 17 -161 42l39 124c29 -17 59 -29 73 -29c24 0 46 7 52 16
l10 20l-209 524h197l106 -319l100 319h194l-195 -521c-42 -111 -118 -176 -206 -176z" />
    <glyph glyph-name="ygrave" unicode="&#x1ef3;" horiz-adv-x="607" 
d="M291 574l-152 136l166 28l112 -164h-126zM201 -180c-52 0 -119 17 -161 42l39 124c29 -17 59 -29 73 -29c24 0 46 7 52 16l10 20l-209 524h197l106 -319l100 319h194l-195 -521c-42 -111 -118 -176 -206 -176z" />
    <glyph glyph-name="z" unicode="z" horiz-adv-x="544" 
d="M33 0v133l229 224h-222v160h472l-1 -133l-229 -224h232v-160h-481z" />
    <glyph glyph-name="zacute" unicode="&#x17a;" horiz-adv-x="544" 
d="M160 574l112 164l166 -28l-152 -136h-126zM33 0v133l229 224h-222v160h472l-1 -133l-229 -224h232v-160h-481z" />
    <glyph glyph-name="zcaron" unicode="&#x17e;" horiz-adv-x="544" 
d="M202 574l-108 154h112l73 -67l74 67h113l-109 -154h-155zM33 0v133l229 224h-222v160h472l-1 -133l-229 -224h232v-160h-481z" />
    <glyph glyph-name="zdotaccent" unicode="&#x17c;" horiz-adv-x="544" 
d="M279 575c-50 0 -87 39 -87 87c0 46 37 86 87 86c47 0 86 -40 86 -86c0 -48 -39 -87 -86 -87zM33 0v133l229 224h-222v160h472l-1 -133l-229 -224h232v-160h-481z" />
    <glyph glyph-name="a.alt" 
d="M430 517h193v-517h-193v61c-41 -46 -98 -73 -165 -73c-139 0 -237 112 -237 271c0 158 98 270 237 270c67 0 124 -27 165 -73v61zM326 148c61 0 104 46 104 111c0 64 -43 110 -104 110c-67 0 -114 -46 -114 -110c0 -65 47 -111 114 -111z" />
    <glyph glyph-name="aacute.alt" 
d="M504 710l-152 -136h-126l112 164zM430 517h193v-517h-193v61c-41 -46 -98 -73 -165 -73c-139 0 -237 112 -237 271c0 158 98 270 237 270c67 0 124 -27 165 -73v61zM326 148c61 0 104 46 104 111c0 64 -43 110 -104 110c-67 0 -114 -46 -114 -110c0 -65 47 -111 114 -111
z" />
    <glyph glyph-name="abreve.alt" 
d="M516 646c-47 -47 -109 -71 -171 -71s-123 24 -171 71l74 74c27 -27 63 -43 97 -43s70 16 97 43zM430 517h193v-517h-193v61c-41 -46 -98 -73 -165 -73c-139 0 -237 112 -237 271c0 158 98 270 237 270c67 0 124 -27 165 -73v61zM326 148c61 0 104 46 104 111
c0 64 -43 110 -104 110c-67 0 -114 -46 -114 -110c0 -65 47 -111 114 -111z" />
    <glyph glyph-name="acircumflex.alt" 
d="M345 641l-73 -67h-112l108 154h155l109 -154h-113zM430 517h193v-517h-193v61c-41 -46 -98 -73 -165 -73c-139 0 -237 112 -237 271c0 158 98 270 237 270c67 0 124 -27 165 -73v61zM326 148c61 0 104 46 104 111c0 64 -43 110 -104 110c-67 0 -114 -46 -114 -110
c0 -65 47 -111 114 -111z" />
    <glyph glyph-name="adieresis.alt" 
d="M233 575c-50 0 -87 39 -87 87c0 46 37 86 87 86c47 0 86 -40 86 -86c0 -48 -39 -87 -86 -87zM458 575c-49 0 -87 39 -87 87c0 46 38 86 87 86c48 0 86 -40 86 -86c0 -48 -38 -87 -86 -87zM430 517h193v-517h-193v61c-41 -46 -98 -73 -165 -73c-139 0 -237 112 -237 271
c0 158 98 270 237 270c67 0 124 -27 165 -73v61zM326 148c61 0 104 46 104 111c0 64 -43 110 -104 110c-67 0 -114 -46 -114 -110c0 -65 47 -111 114 -111z" />
    <glyph glyph-name="agrave.alt" 
d="M454 574h-126l-152 136l166 28zM430 517h193v-517h-193v61c-41 -46 -98 -73 -165 -73c-139 0 -237 112 -237 271c0 158 98 270 237 270c67 0 124 -27 165 -73v61zM326 148c61 0 104 46 104 111c0 64 -43 110 -104 110c-67 0 -114 -46 -114 -110c0 -65 47 -111 114 -111z
" />
    <glyph glyph-name="amacron.alt" 
d="M529 679v-106h-369v106h369zM430 517h193v-517h-193v61c-41 -46 -98 -73 -165 -73c-139 0 -237 112 -237 271c0 158 98 270 237 270c67 0 124 -27 165 -73v61zM326 148c61 0 104 46 104 111c0 64 -43 110 -104 110c-67 0 -114 -46 -114 -110c0 -65 47 -111 114 -111z" />
    <glyph glyph-name="aogonek.alt" 
d="M654 -56l22 -82c-22 -20 -54 -35 -93 -35c-66 0 -112 44 -112 114c0 23 5 42 15 59h-56v61c-41 -46 -98 -73 -165 -73c-139 0 -237 112 -237 271c0 158 98 270 237 270c67 0 124 -27 165 -73v61h193v-517c-23 0 -38 -15 -38 -36s16 -30 39 -30c11 0 23 4 30 10zM326 148
c61 0 104 46 104 111c0 64 -43 110 -104 110c-67 0 -114 -46 -114 -110c0 -65 47 -111 114 -111z" />
    <glyph glyph-name="aring.alt" 
d="M345 575c-66 0 -121 54 -121 121s55 121 121 121c67 0 121 -54 121 -121s-54 -121 -121 -121zM345 745c-27 0 -49 -22 -49 -49s22 -49 49 -49s49 22 49 49s-22 49 -49 49zM430 517h193v-517h-193v61c-41 -46 -98 -73 -165 -73c-139 0 -237 112 -237 271
c0 158 98 270 237 270c67 0 124 -27 165 -73v61zM326 148c61 0 104 46 104 111c0 64 -43 110 -104 110c-67 0 -114 -46 -114 -110c0 -65 47 -111 114 -111z" />
    <glyph glyph-name="atilde.alt" 
d="M281 612c-20 0 -31 -13 -37 -42l-90 13c11 95 48 141 121 141c54 0 107 -41 133 -41c20 0 31 14 37 42l90 -13c-10 -95 -48 -141 -121 -141c-55 0 -106 41 -133 41zM430 517h193v-517h-193v61c-41 -46 -98 -73 -165 -73c-139 0 -237 112 -237 271c0 158 98 270 237 270
c67 0 124 -27 165 -73v61zM326 148c61 0 104 46 104 111c0 64 -43 110 -104 110c-67 0 -114 -46 -114 -110c0 -65 47 -111 114 -111z" />
    <glyph glyph-name="zero" unicode="0" horiz-adv-x="718" 
d="M359 -12c-190 0 -324 147 -324 356c0 208 134 355 324 355s324 -147 324 -355c0 -209 -134 -356 -324 -356zM359 164c73 0 124 75 124 180s-51 179 -124 179s-124 -74 -124 -179s51 -180 124 -180z" />
    <glyph glyph-name="one" unicode="1" horiz-adv-x="456" 
d="M197 0v469l-115 -70l-76 134l230 154h155v-687h-194z" />
    <glyph glyph-name="two" unicode="2" horiz-adv-x="625" 
d="M40 0v157l255 184c72 52 89 83 89 119c0 38 -33 63 -78 63c-59 0 -105 -28 -158 -81l-120 121c76 90 169 136 283 136c163 0 273 -98 273 -231c0 -90 -36 -160 -158 -238l-89 -57h253v-173h-550z" />
    <glyph glyph-name="three" unicode="3" horiz-adv-x="619" 
d="M310 -13c-131 0 -230 46 -294 114l109 129c51 -48 115 -70 174 -70c62 0 93 23 93 54c0 33 -23 51 -105 50l-83 -1v162h82c64 0 93 17 93 48c0 34 -35 53 -91 53c-57 0 -106 -27 -150 -68l-107 119c60 69 146 122 278 122c170 0 268 -81 268 -189
c0 -74 -48 -133 -126 -156c78 -18 141 -73 141 -158c0 -122 -110 -209 -282 -209z" />
    <glyph glyph-name="four" unicode="4" horiz-adv-x="665" 
d="M362 0v122h-331l-16 146l303 418h238v-404h83v-160h-83v-122h-194zM214 282h148v206z" />
    <glyph glyph-name="five" unicode="5" horiz-adv-x="630" 
d="M304 -13c-121 0 -212 39 -281 103l110 136c51 -43 112 -72 171 -72c66 0 100 34 100 73c0 42 -36 69 -97 69c-47 0 -87 -14 -120 -40l-127 48l10 383h489v-173h-312l-3 -98c32 23 74 38 126 38c120 0 227 -78 227 -220c0 -152 -113 -247 -293 -247z" />
    <glyph glyph-name="six" unicode="6" horiz-adv-x="656" 
d="M388 454c128 0 233 -84 233 -221c0 -150 -122 -245 -277 -245c-210 0 -313 139 -313 343c0 221 128 368 341 368c87 0 161 -26 221 -69l-88 -146c-41 30 -79 46 -131 46c-73 0 -118 -42 -135 -119c40 26 95 43 149 43zM331 152c54 0 90 31 90 73c0 47 -45 74 -95 74
c-39 0 -72 -20 -91 -53c9 -67 34 -94 96 -94z" />
    <glyph glyph-name="seven" unicode="7" horiz-adv-x="606" 
d="M98 0l260 514h-319v173h542v-146l-265 -541h-218z" />
    <glyph glyph-name="eight" unicode="8" horiz-adv-x="636" 
d="M318 -12c-159 0 -292 69 -292 199c0 78 48 136 123 168c-61 29 -105 77 -105 154c0 125 130 190 274 190c147 0 275 -68 275 -189c0 -73 -39 -123 -106 -155c79 -35 124 -94 124 -168c0 -131 -135 -199 -293 -199zM318 420c46 3 84 29 84 62c0 32 -32 58 -84 58
s-83 -26 -83 -58c0 -34 37 -59 83 -62zM318 148c58 0 97 25 97 62c0 35 -46 59 -97 62c-51 -3 -96 -27 -96 -62c0 -37 37 -62 96 -62z" />
    <glyph glyph-name="nine" unicode="9" horiz-adv-x="656" 
d="M312 699c210 0 313 -139 313 -343c0 -221 -128 -368 -341 -368c-87 0 -161 26 -221 69l88 146c41 -30 79 -46 131 -46c73 0 118 42 135 119c-40 -26 -95 -43 -149 -43c-128 0 -233 84 -233 221c0 150 122 245 277 245zM330 388c39 0 72 20 91 53c-9 67 -34 94 -96 94
c-54 0 -90 -31 -90 -73c0 -47 45 -74 95 -74z" />
    <glyph glyph-name="asterisk" unicode="*" horiz-adv-x="390" 
d="M196 325c-26 0 -47 20 -47 43c0 32 19 76 24 108c-26 -20 -53 -59 -80 -75c-20 -12 -48 -4 -61 19s-6 51 14 62c27 16 75 20 105 32c-31 12 -78 17 -105 33c-20 11 -27 39 -14 62s41 31 61 19c27 -16 55 -56 80 -76c-5 32 -25 76 -25 108c0 23 21 43 47 43s47 -20 47 -43
c0 -32 -21 -76 -26 -108c26 20 54 59 81 75c20 12 48 4 61 -19s6 -51 -14 -62c-27 -16 -76 -20 -106 -32c31 -12 79 -17 106 -33c20 -11 27 -39 14 -62s-41 -31 -61 -19c-27 16 -55 56 -80 76c5 -32 26 -76 26 -108c0 -23 -21 -43 -47 -43z" />
    <glyph glyph-name="backslash" unicode="\" horiz-adv-x="493" 
d="M322 -74l-340 817h200l340 -817h-200z" />
    <glyph glyph-name="colon" unicode=":" horiz-adv-x="314" 
d="M160 313c-67 0 -118 53 -118 118c0 60 51 113 118 113c62 0 113 -53 113 -113c0 -65 -51 -118 -113 -118zM160 -12c-67 0 -118 53 -118 118c0 60 51 113 118 113c62 0 113 -53 113 -113c0 -65 -51 -118 -113 -118z" />
    <glyph glyph-name="comma" unicode="," horiz-adv-x="312" 
d="M148 -155l-63 48c34 27 58 62 67 95c-60 0 -110 52 -110 114c0 64 52 117 113 117c69 0 118 -64 118 -154c0 -73 -46 -154 -125 -220z" />
    <glyph glyph-name="ellipsis" unicode="&#x2026;" horiz-adv-x="915" 
d="M160 -12c-67 0 -118 53 -118 118c0 60 51 113 118 113c62 0 113 -53 113 -113c0 -65 -51 -118 -113 -118zM460 -12c-67 0 -118 53 -118 118c0 60 51 113 118 113c62 0 113 -53 113 -113c0 -65 -51 -118 -113 -118zM760 -12c-67 0 -118 53 -118 118c0 60 51 113 118 113
c62 0 113 -53 113 -113c0 -65 -51 -118 -113 -118z" />
    <glyph glyph-name="exclam" unicode="!" horiz-adv-x="329" 
d="M102 274l-43 413h215l-42 -413h-130zM167 -12c-67 0 -118 53 -118 118c0 60 51 113 118 113c62 0 113 -53 113 -113c0 -65 -51 -118 -113 -118z" />
    <glyph glyph-name="exclamdown" unicode="&#xa1;" horiz-adv-x="329" 
d="M162 529c67 0 118 -53 118 -118c0 -60 -51 -113 -118 -113c-62 0 -113 53 -113 113c0 65 51 118 113 118zM227 243l43 -413h-215l42 413h130z" />
    <glyph glyph-name="numbersign" unicode="#" horiz-adv-x="676" 
d="M617 404h-83l-31 -123h83l-33 -134h-84l-37 -147h-135l37 147h-92l-37 -147h-135l37 147h-81l33 134h82l31 123h-85l33 134h85l38 149h135l-38 -149h92l38 149h135l-38 -149h83zM368 281l31 123h-92l-31 -123h92z" />
    <glyph glyph-name="period" unicode="." horiz-adv-x="314" 
d="M160 -12c-67 0 -118 53 -118 118c0 60 51 113 118 113c62 0 113 -53 113 -113c0 -65 -51 -118 -113 -118z" />
    <glyph glyph-name="question" unicode="?" horiz-adv-x="503" 
d="M159 264v150c76 0 129 25 129 61c0 30 -32 51 -77 51c-32 0 -72 -16 -97 -39l-106 109c60 62 144 103 241 103c138 0 235 -85 235 -205c0 -91 -67 -171 -161 -194v-36h-164zM241 -12c-67 0 -118 53 -118 118c0 60 51 113 118 113c62 0 113 -53 113 -113
c0 -65 -51 -118 -113 -118z" />
    <glyph glyph-name="questiondown" unicode="&#xbf;" horiz-adv-x="503" 
d="M262 529c67 0 118 -53 118 -118c0 -60 -51 -113 -118 -113c-62 0 -113 53 -113 113c0 65 51 118 113 118zM344 253v-150c-76 0 -129 -25 -129 -61c0 -30 32 -51 77 -51c32 0 72 16 97 39l106 -109c-60 -62 -144 -103 -241 -103c-138 0 -235 85 -235 205
c0 91 67 171 161 194v36h164z" />
    <glyph glyph-name="quotedbl" unicode="&#x22;" horiz-adv-x="584" 
d="M118 370c-31 85 -62 177 -62 236c0 54 44 99 96 99s96 -45 96 -99c0 -59 -31 -151 -62 -236h-68zM398 370c-31 85 -62 177 -62 236c0 54 44 99 96 99s96 -45 96 -99c0 -59 -31 -151 -62 -236h-68z" />
    <glyph glyph-name="quotesingle" unicode="'" horiz-adv-x="304" 
d="M118 370c-31 85 -62 177 -62 236c0 54 44 99 96 99s96 -45 96 -99c0 -59 -31 -151 -62 -236h-68z" />
    <glyph glyph-name="semicolon" unicode=";" horiz-adv-x="312" 
d="M160 313c-67 0 -118 53 -118 118c0 60 51 113 118 113c62 0 113 -53 113 -113c0 -65 -51 -118 -113 -118zM148 -155l-63 48c34 27 58 62 67 95c-60 0 -110 52 -110 114c0 64 52 117 113 117c69 0 118 -64 118 -154c0 -73 -46 -154 -125 -220z" />
    <glyph glyph-name="slash" unicode="/" horiz-adv-x="493" 
d="M-29 -74l340 817h200l-340 -817h-200z" />
    <glyph glyph-name="underscore" unicode="_" horiz-adv-x="592" 
d="M-2 -159v98h596v-98h-596z" />
    <glyph glyph-name="braceleft" unicode="{" horiz-adv-x="415" 
d="M372 -166c-182 12 -254 69 -254 189l2 107c0 57 -28 81 -94 81v110c68 0 94 24 94 81l-2 106c0 121 73 177 254 189l15 -113c-101 -12 -122 -28 -122 -91l1 -115c0 -57 -26 -95 -79 -112c53 -17 79 -55 79 -113l-1 -114c0 -64 23 -80 122 -92z" />
    <glyph glyph-name="braceright" unicode="}" horiz-adv-x="415" 
d="M43 -166l-15 113c99 12 122 28 122 92l-1 114c0 58 26 96 79 113c-53 17 -79 55 -79 112l1 115c0 63 -21 79 -122 91l15 113c181 -12 254 -68 254 -189l-2 -106c0 -57 26 -81 94 -81v-110c-66 0 -94 -24 -94 -81l2 -107c0 -120 -72 -177 -254 -189z" />
    <glyph glyph-name="bracketleft" unicode="[" horiz-adv-x="398" 
d="M64 -160v849h295v-121h-148v-607h148v-121h-295z" />
    <glyph glyph-name="bracketright" unicode="]" horiz-adv-x="398" 
d="M39 -160v121h148v607h-148v121h295v-849h-295z" />
    <glyph glyph-name="parenleft" unicode="(" horiz-adv-x="401" 
d="M277 -170c-146 96 -234 254 -234 435c0 182 88 339 234 435l97 -102c-100 -103 -142 -200 -142 -333c0 -132 42 -229 142 -332z" />
    <glyph glyph-name="parenright" unicode=")" horiz-adv-x="401" 
d="M124 -170l-97 103c100 103 142 200 142 332c0 133 -42 230 -142 333l97 102c146 -96 234 -253 234 -435c0 -181 -88 -339 -234 -435z" />
    <glyph glyph-name="emdash" unicode="&#x2014;" horiz-adv-x="872" 
d="M38 200v156h796v-156h-796z" />
    <glyph glyph-name="endash" unicode="&#x2013;" horiz-adv-x="567" 
d="M38 200v156h491v-156h-491z" />
    <glyph glyph-name="hyphen" unicode="-" horiz-adv-x="360" 
d="M38 199v158h284v-158h-284z" />
    <glyph glyph-name="quotedblleft" unicode="&#x201c;" horiz-adv-x="612" 
d="M164 704l63 -48c-34 -27 -58 -62 -67 -95c60 0 110 -52 110 -114c0 -64 -52 -117 -113 -117c-69 0 -118 64 -118 154c0 73 46 154 125 220zM464 704l63 -48c-34 -27 -58 -62 -67 -95c60 0 110 -52 110 -114c0 -64 -52 -117 -113 -117c-69 0 -118 64 -118 154
c0 73 46 154 125 220z" />
    <glyph glyph-name="quotedblright" unicode="&#x201d;" horiz-adv-x="612" 
d="M148 331l-63 48c34 27 58 62 67 95c-60 0 -110 52 -110 114c0 64 52 117 113 117c69 0 118 -64 118 -154c0 -73 -46 -154 -125 -220zM448 331l-63 48c34 27 58 62 67 95c-60 0 -110 52 -110 114c0 64 52 117 113 117c69 0 118 -64 118 -154c0 -73 -46 -154 -125 -220z
" />
    <glyph glyph-name="quoteleft" unicode="&#x2018;" horiz-adv-x="312" 
d="M164 704l63 -48c-34 -27 -58 -62 -67 -95c60 0 110 -52 110 -114c0 -64 -52 -117 -113 -117c-69 0 -118 64 -118 154c0 73 46 154 125 220z" />
    <glyph glyph-name="quoteright" unicode="&#x2019;" horiz-adv-x="312" 
d="M148 331l-63 48c34 27 58 62 67 95c-60 0 -110 52 -110 114c0 64 52 117 113 117c69 0 118 -64 118 -154c0 -73 -46 -154 -125 -220z" />
    <glyph glyph-name="space" unicode=" " horiz-adv-x="272" 
 />
    <glyph glyph-name="cent" unicode="&#xa2;" horiz-adv-x="552" 
d="M538 87c-43 -50 -101 -85 -175 -96v-65h-110v69c-128 28 -226 138 -226 264s98 234 226 263v67h110v-63c72 -10 130 -44 172 -93l-127 -104c-20 23 -57 40 -90 40c-58 0 -107 -50 -107 -109c0 -61 49 -112 108 -112c33 0 71 17 92 41z" />
    <glyph glyph-name="dollar" unicode="$" horiz-adv-x="646" 
d="M619 218c0 -134 -95 -217 -245 -229v-63h-110v66c-97 13 -186 50 -256 112l108 129c70 -55 146 -84 227 -84c53 0 81 18 81 48c0 33 -24 38 -119 60c-149 34 -264 73 -264 216c0 123 87 207 223 223v63h110v-63c90 -10 164 -40 226 -90l-97 -137c-64 46 -134 69 -196 69
c-47 0 -70 -19 -70 -45c0 -35 24 -46 122 -67c160 -34 260 -77 260 -208z" />
    <glyph glyph-name="Euro" unicode="&#x20ac;" horiz-adv-x="706" 
d="M408 164c55 0 104 28 137 70l142 -124c-69 -75 -169 -122 -279 -122c-168 0 -314 111 -359 259h-60v77h46c-1 7 -1 13 -1 20c0 9 0 19 1 28h-46v77h62c49 143 192 250 357 250c110 0 210 -47 279 -121l-143 -125c-32 42 -82 70 -136 70c-56 0 -108 -29 -140 -74h187v-77
h-219c-1 -9 -2 -19 -2 -28c0 -7 0 -13 1 -20h220v-77h-193c32 -50 86 -83 146 -83z" />
    <glyph glyph-name="sterling" unicode="&#xa3;" horiz-adv-x="677" 
d="M334 143h320v-143h-614v76l100 67v107h-74v87h74v126c0 138 103 236 249 236c93 0 194 -47 243 -114l-125 -122c-19 35 -57 60 -92 60c-47 0 -81 -33 -81 -80v-106h137v-87h-137v-107z" />
    <glyph glyph-name="yen" unicode="&#xa5;" horiz-adv-x="709" 
d="M715 687l-211 -370h99v-87h-149l-2 -4v-49h151v-87h-151v-90h-194v90h-151v87h151v49l-2 4h-149v87h99l-212 370h222l139 -279l147 279h213z" />
    <glyph glyph-name="plus" unicode="+" horiz-adv-x="609" 
d="M554 408v-149h-169v-175h-160v175h-170v149h170v175h160v-175h169z" />
    <glyph glyph-name="minus" unicode="&#x2212;" horiz-adv-x="609" 
d="M55 259v149h499v-149h-499z" />
    <glyph glyph-name="multiply" unicode="&#xd7;" horiz-adv-x="574" 
d="M520 214l-113 -113l-123 124l-121 -121l-106 106l121 121l-124 123l113 113l124 -123l119 119l106 -106l-119 -119z" />
    <glyph glyph-name="divide" unicode="&#xf7;" horiz-adv-x="609" 
d="M307 442c-56 0 -100 45 -100 100c0 51 44 96 100 96c53 0 96 -45 96 -96c0 -55 -43 -100 -96 -100zM55 260v149h499v-149h-499zM307 30c-56 0 -100 45 -100 100c0 51 44 96 100 96c53 0 96 -45 96 -96c0 -55 -43 -100 -96 -100z" />
    <glyph glyph-name="equal" unicode="=" horiz-adv-x="609" 
d="M55 382v149h499v-149h-499zM55 148v149h499v-149h-499z" />
    <glyph glyph-name="greater" unicode="&#x3e;" horiz-adv-x="597" 
d="M67 78v151l331 114l-331 116v150l475 -189v-153z" />
    <glyph glyph-name="less" unicode="&#x3c;" horiz-adv-x="597" 
d="M530 78l-475 189v153l475 189v-150l-331 -116l331 -114v-151z" />
    <glyph glyph-name="asciitilde" unicode="~" horiz-adv-x="457" 
d="M298 290c-55 0 -106 41 -133 41c-20 0 -31 -13 -37 -42l-90 13c11 95 48 141 121 141c54 0 107 -41 133 -41c20 0 31 14 37 42l90 -13c-10 -95 -48 -141 -121 -141z" />
    <glyph glyph-name="percent" unicode="%" horiz-adv-x="864" 
d="M210 338c-107 0 -179 77 -179 178c0 98 70 178 179 178c110 0 180 -80 180 -178c0 -101 -73 -178 -180 -178zM125 0l483 687h132l-483 -687h-132zM210 445c33 0 58 25 58 71c0 44 -25 70 -58 70s-57 -25 -57 -70s25 -71 57 -71zM654 -11c-109 0 -180 80 -180 178
c0 101 73 179 180 179c109 0 179 -80 179 -179c0 -100 -73 -178 -179 -178zM654 97c33 0 58 25 58 70s-26 71 -58 71c-34 0 -58 -24 -58 -71c0 -44 25 -70 58 -70z" />
    <glyph glyph-name="perthousand" unicode="&#x2030;" horiz-adv-x="1254" 
d="M210 338c-107 0 -179 77 -179 178c0 98 70 178 179 178c110 0 180 -80 180 -178c0 -101 -73 -178 -180 -178zM125 0l483 687h132l-483 -687h-132zM210 445c33 0 58 25 58 71c0 44 -25 70 -58 70s-57 -25 -57 -70s25 -71 57 -71zM654 -11c-109 0 -180 80 -180 178
c0 101 73 179 180 179c109 0 179 -80 179 -179c0 -100 -73 -178 -179 -178zM1044 -11c-109 0 -180 80 -180 178c0 101 73 179 180 179c109 0 179 -80 179 -179c0 -100 -73 -178 -179 -178zM654 97c33 0 58 25 58 70s-26 71 -58 71c-34 0 -58 -24 -58 -71
c0 -44 25 -70 58 -70zM1044 97c33 0 58 25 58 70s-26 71 -58 71c-34 0 -58 -24 -58 -71c0 -44 25 -70 58 -70z" />
    <glyph glyph-name="at" unicode="@" horiz-adv-x="879" 
d="M424 -116c-220 0 -381 166 -381 376c0 226 189 416 420 416c220 0 373 -160 373 -342c0 -180 -119 -263 -218 -263c-72 0 -111 31 -130 75c-36 -47 -85 -73 -138 -73c-103 0 -170 77 -170 187c0 135 103 249 219 249c61 0 103 -28 128 -65l11 52l156 -12
c-34 -178 -50 -229 -50 -273c0 -30 18 -48 47 -48c52 0 99 59 99 171c0 169 -132 300 -329 300c-210 0 -375 -169 -375 -373c0 -189 141 -336 341 -336c81 0 147 22 212 61l22 -33c-70 -44 -148 -69 -237 -69zM409 202c47 0 85 42 90 102c4 45 -21 76 -61 76
c-59 0 -97 -52 -97 -107c0 -45 28 -71 68 -71z" />
    <glyph glyph-name="ampersand" unicode="&#x26;" horiz-adv-x="685" 
d="M668 46l-153 -68c-22 24 -44 46 -64 68c-56 -38 -118 -58 -190 -58c-140 0 -241 74 -241 203c0 90 40 142 143 189c-33 51 -43 81 -43 132c0 100 95 184 208 184c126 0 215 -76 215 -184c0 -67 -36 -109 -149 -165c21 -24 45 -51 73 -82c22 33 42 70 58 107l134 -65
c-30 -57 -61 -107 -94 -150zM332 567c-29 0 -53 -25 -53 -55s13 -48 35 -74c52 21 70 36 70 74c0 32 -22 55 -52 55zM288 129c22 0 44 8 66 21c-44 48 -80 88 -108 121c-26 -20 -35 -40 -35 -66c0 -47 35 -76 77 -76z" />
    <glyph glyph-name="bar" unicode="|" horiz-adv-x="313" 
d="M92 -74v817h129v-817h-129z" />
    <glyph glyph-name="asciicircum" unicode="^" horiz-adv-x="486" 
d="M36 413l143 274h129l142 -274h-130l-78 160l-77 -160h-129z" />
    <glyph glyph-name="uni0326" unicode="&#x326;" horiz-adv-x="0" 
d="M-164 -301l-46 36c25 20 43 46 49 70c-44 0 -81 39 -81 85c0 48 38 87 84 87c51 0 87 -48 87 -114c0 -55 -34 -115 -93 -164z" />
    <glyph glyph-name="acute" unicode="&#xb4;" horiz-adv-x="404" 
d="M63 574l112 164l166 -28l-152 -136h-126z" />
    <glyph glyph-name="breve" unicode="&#x2d8;" horiz-adv-x="468" 
d="M234 575c-62 0 -123 24 -171 71l74 74c27 -27 63 -43 97 -43s70 16 97 43l74 -74c-47 -47 -109 -71 -171 -71z" />
    <glyph glyph-name="caron" unicode="&#x2c7;" horiz-adv-x="498" 
d="M171 574l-108 154h112l73 -67l74 67h113l-109 -154h-155z" />
    <glyph glyph-name="cedilla" unicode="&#xb8;" horiz-adv-x="340" 
d="M204 -42c44 -2 73 -31 73 -69c0 -56 -48 -89 -115 -89c-38 0 -76 13 -99 30l31 68c17 -14 38 -23 58 -23c19 0 36 9 36 25c0 14 -11 22 -28 22c-9 0 -19 -3 -27 -8l-26 24l31 73h89z" />
    <glyph glyph-name="circumflex" unicode="&#x2c6;" horiz-adv-x="498" 
d="M63 574l108 154h155l109 -154h-113l-74 67l-73 -67h-112z" />
    <glyph glyph-name="dieresis" unicode="&#xa8;" horiz-adv-x="524" 
d="M150 575c-50 0 -87 39 -87 87c0 46 37 86 87 86c47 0 86 -40 86 -86c0 -48 -39 -87 -86 -87zM375 575c-49 0 -87 39 -87 87c0 46 38 86 87 86c48 0 86 -40 86 -86c0 -48 -38 -87 -86 -87z" />
    <glyph glyph-name="dotaccent" unicode="&#x2d9;" horiz-adv-x="299" 
d="M150 575c-50 0 -87 39 -87 87c0 46 37 86 87 86c47 0 86 -40 86 -86c0 -48 -39 -87 -86 -87z" />
    <glyph glyph-name="grave" unicode="`" horiz-adv-x="404" 
d="M215 574l-152 136l166 28l112 -164h-126z" />
    <glyph glyph-name="hungarumlaut" unicode="&#x2dd;" horiz-adv-x="662" 
d="M63 574l112 164l166 -28l-152 -136h-126zM321 574l112 164l166 -28l-152 -136h-126z" />
    <glyph glyph-name="macron" unicode="&#xaf;" horiz-adv-x="495" 
d="M63 573v106h369v-106h-369z" />
    <glyph glyph-name="ogonek" unicode="&#x2db;" horiz-adv-x="331" 
d="M175 -173c-66 0 -112 44 -112 114c0 43 18 74 51 97l101 -38c-23 0 -38 -15 -38 -36s16 -30 39 -30c11 0 23 4 30 10l22 -82c-22 -20 -54 -35 -93 -35z" />
    <glyph glyph-name="ring" unicode="&#x2da;" horiz-adv-x="368" 
d="M184 575c-66 0 -121 54 -121 121s55 121 121 121c67 0 121 -54 121 -121s-54 -121 -121 -121zM184 647c27 0 49 22 49 49s-22 49 -49 49s-49 -22 -49 -49s22 -49 49 -49z" />
    <glyph glyph-name="tilde" unicode="&#x2dc;" horiz-adv-x="439" 
d="M289 571c-55 0 -106 41 -133 41c-20 0 -31 -13 -37 -42l-90 13c11 95 48 141 121 141c54 0 107 -41 133 -41c20 0 31 14 37 42l90 -13c-10 -95 -48 -141 -121 -141z" />
    <glyph glyph-name="ascender" 
d="M51 0v699h193v-699h-193z" />
    <glyph glyph-name="descender" 
d="M51 -172v689h193v-689h-193z" />
    </font>
</defs>
</svg>
