<svg aria-hidden="true" style="position: absolute; width: 0; height: 0; overflow: hidden;" version="1.1" xmlns="http://www.w3.org/2000/svg" xmlns:xlink="http://www.w3.org/1999/xlink">
<defs>
<symbol id="icon-facebook" viewBox="0 0 32 32">
<path fill="#4b7fcd" style="fill: var(--color1, #4b7fcd)" d="M20.16 7.093h2.507v-4.24c-1.214-0.126-2.433-0.188-3.653-0.187-3.627 0-6.107 2.213-6.107 6.267v3.493h-4.093v4.747h4.093v12.16h4.907v-12.16h4.080l0.613-4.747h-4.693v-3.027c0-1.4 0.373-2.307 2.347-2.307z"></path>
</symbol>
<symbol id="icon-instagram" viewBox="0 0 32 32">
<path fill="#ed017f" style="fill: var(--color2, #ed017f)" d="M23.12 7.28c-0.316 0-0.626 0.094-0.889 0.27s-0.468 0.426-0.589 0.718c-0.121 0.292-0.153 0.614-0.091 0.924s0.214 0.595 0.438 0.819c0.224 0.224 0.509 0.376 0.819 0.438s0.632 0.030 0.924-0.091c0.292-0.121 0.542-0.326 0.718-0.589s0.27-0.572 0.27-0.889c0-0.424-0.169-0.831-0.469-1.131s-0.707-0.469-1.131-0.469zM29.253 10.507c-0.026-1.106-0.233-2.201-0.613-3.24-0.339-0.889-0.867-1.694-1.547-2.36-0.66-0.683-1.467-1.208-2.36-1.533-1.036-0.392-2.132-0.604-3.24-0.627-1.413-0.080-1.867-0.080-5.493-0.080s-4.080 0-5.493 0.080c-1.108 0.023-2.204 0.235-3.24 0.627-0.891 0.329-1.697 0.853-2.36 1.533-0.683 0.66-1.208 1.467-1.533 2.36-0.392 1.036-0.604 2.132-0.627 3.24-0.080 1.413-0.080 1.867-0.080 5.493s0 4.080 0.080 5.493c0.023 1.108 0.235 2.204 0.627 3.24 0.326 0.893 0.85 1.7 1.533 2.36 0.663 0.681 1.469 1.205 2.36 1.533 1.036 0.392 2.132 0.604 3.24 0.627 1.413 0.080 1.867 0.080 5.493 0.080s4.080 0 5.493-0.080c1.108-0.023 2.204-0.235 3.24-0.627 0.893-0.326 1.7-0.85 2.36-1.533 0.683-0.663 1.211-1.469 1.547-2.36 0.38-1.039 0.587-2.134 0.613-3.24 0-1.413 0.080-1.867 0.080-5.493s0-4.080-0.080-5.493zM26.853 21.333c-0.010 0.846-0.163 1.685-0.453 2.48-0.213 0.58-0.555 1.105-1 1.533-0.433 0.441-0.956 0.782-1.533 1-0.795 0.29-1.634 0.444-2.48 0.453-1.333 0.067-1.827 0.080-5.333 0.080s-4 0-5.333-0.080c-0.879 0.016-1.754-0.119-2.587-0.4-0.552-0.229-1.052-0.57-1.467-1-0.443-0.428-0.78-0.953-0.987-1.533-0.326-0.806-0.506-1.664-0.533-2.533 0-1.333-0.080-1.827-0.080-5.333s0-4 0.080-5.333c0.006-0.865 0.164-1.723 0.467-2.533 0.235-0.563 0.595-1.064 1.053-1.467 0.405-0.458 0.906-0.823 1.467-1.067 0.813-0.293 1.669-0.447 2.533-0.453 1.333 0 1.827-0.080 5.333-0.080s4 0 5.333 0.080c0.846 0.010 1.685 0.163 2.48 0.453 0.606 0.225 1.15 0.59 1.587 1.067 0.437 0.41 0.778 0.91 1 1.467 0.296 0.812 0.45 1.669 0.453 2.533 0.067 1.333 0.080 1.827 0.080 5.333s-0.013 4-0.080 5.333zM16 9.16c-1.352 0.003-2.673 0.406-3.796 1.159s-1.998 1.822-2.513 3.072c-0.516 1.25-0.649 2.625-0.384 3.951s0.918 2.543 1.875 3.499c0.957 0.955 2.176 1.605 3.502 1.868s2.701 0.127 3.95-0.391c1.249-0.518 2.317-1.395 3.067-2.519s1.152-2.446 1.152-3.799c0.002-0.9-0.174-1.791-0.518-2.623s-0.849-1.587-1.486-2.223-1.393-1.139-2.225-1.482c-0.832-0.342-1.724-0.517-2.624-0.513zM16 20.44c-0.878 0-1.737-0.26-2.467-0.748s-1.299-1.181-1.635-1.993c-0.336-0.811-0.424-1.704-0.253-2.565s0.594-1.652 1.215-2.273c0.621-0.621 1.412-1.044 2.273-1.215s1.754-0.083 2.565 0.253c0.811 0.336 1.505 0.905 1.993 1.635s0.748 1.589 0.748 2.467c0 0.583-0.115 1.16-0.338 1.699s-0.55 1.028-0.962 1.441c-0.412 0.412-0.902 0.739-1.441 0.962s-1.116 0.338-1.699 0.338z"></path>
</symbol>
<symbol id="icon-linkedin" viewBox="0 0 32 32">
<path fill="#4a71fb" style="fill: var(--color3, #4a71fb)" d="M27.293 2.667h-22.587c-0.254-0.004-0.506 0.043-0.742 0.137s-0.451 0.233-0.633 0.41c-0.182 0.177-0.327 0.388-0.428 0.621s-0.154 0.484-0.157 0.738v22.853c0.003 0.254 0.057 0.505 0.157 0.738s0.246 0.444 0.428 0.621c0.182 0.177 0.397 0.317 0.633 0.41s0.488 0.14 0.742 0.137h22.587c0.254 0.003 0.506-0.043 0.742-0.137s0.451-0.233 0.633-0.41 0.327-0.388 0.428-0.621c0.1-0.233 0.154-0.484 0.157-0.738v-22.853c-0.003-0.254-0.057-0.505-0.157-0.738s-0.246-0.444-0.428-0.621c-0.182-0.177-0.397-0.317-0.633-0.41s-0.488-0.14-0.742-0.137zM10.787 24.987h-4v-12h4v12zM8.787 11.307c-0.552 0-1.081-0.219-1.471-0.609s-0.609-0.919-0.609-1.471c0-0.552 0.219-1.081 0.609-1.471s0.919-0.609 1.471-0.609c0.293-0.033 0.59-0.004 0.87 0.085s0.54 0.237 0.76 0.433c0.22 0.196 0.396 0.437 0.516 0.706s0.183 0.561 0.183 0.855c0 0.295-0.062 0.586-0.183 0.855s-0.296 0.51-0.516 0.706c-0.22 0.196-0.479 0.344-0.76 0.433s-0.578 0.118-0.87 0.085zM25.213 24.987h-4v-6.44c0-1.613-0.573-2.667-2.027-2.667-0.45 0.003-0.888 0.144-1.255 0.404s-0.646 0.626-0.798 1.049c-0.104 0.313-0.15 0.643-0.133 0.973v6.667h-4c0 0 0-10.907 0-12h4v1.693c0.363-0.631 0.892-1.15 1.529-1.502s1.357-0.524 2.085-0.498c2.667 0 4.6 1.72 4.6 5.413v6.907z"></path>
</symbol>
<symbol id="icon-youtube" viewBox="0 0 32 32">
<path fill="#f00" style="fill: var(--color4, #f00)" d="M30.667 12.947c0.066-1.908-0.351-3.803-1.213-5.507-0.585-0.699-1.396-1.171-2.293-1.333-3.71-0.337-7.435-0.475-11.16-0.413-3.711-0.064-7.423 0.069-11.12 0.4-0.731 0.133-1.407 0.476-1.947 0.987-1.2 1.107-1.333 3-1.467 4.6-0.193 2.877-0.193 5.763 0 8.64 0.039 0.901 0.173 1.794 0.4 2.667 0.161 0.673 0.486 1.296 0.947 1.813 0.543 0.538 1.235 0.9 1.987 1.040 2.875 0.355 5.771 0.502 8.667 0.44 4.667 0.067 8.76 0 13.6-0.373 0.77-0.131 1.482-0.494 2.040-1.040 0.373-0.373 0.652-0.831 0.813-1.333 0.477-1.463 0.711-2.995 0.693-4.533 0.053-0.747 0.053-5.253 0.053-6.053zM12.987 19.8v-8.253l7.893 4.147c-2.213 1.227-5.133 2.613-7.893 4.107z"></path>
</symbol>
</defs>
</svg>
